<svg width="264" height="73" viewBox="0 0 264 73" fill="none" xmlns="http://www.w3.org/2000/svg">
<g filter="url(#filter0_d_5_3826)">
<rect width="259" height="68" fill="#4884FF"/>
</g>
<path d="M36.108 42.33C34.4947 42.33 33.0647 42.0073 31.818 41.362C30.5713 40.702 29.6033 39.7707 28.914 38.568C28.2247 37.3507 27.88 35.9353 27.88 34.322C27.88 32.7087 28.2247 31.3007 28.914 30.098C29.6033 28.8807 30.5713 27.942 31.818 27.282C33.0647 26.622 34.4947 26.292 36.108 26.292C37.208 26.292 38.1907 26.4093 39.056 26.644C39.9213 26.8787 40.706 27.2527 41.41 27.766V30.428C40.7647 29.8707 40.024 29.4673 39.188 29.218C38.352 28.9687 37.406 28.844 36.35 28.844C35.294 28.844 34.3333 29.0713 33.468 29.526C32.6173 29.966 31.9427 30.604 31.444 31.44C30.9453 32.2613 30.696 33.222 30.696 34.322C30.696 35.4367 30.9307 36.412 31.4 37.248C31.8693 38.0693 32.522 38.7073 33.358 39.162C34.194 39.602 35.1473 39.822 36.218 39.822C37.3473 39.822 38.2787 39.6313 39.012 39.25V35.796H36.416V33.574H41.806V40.746C40.442 41.802 38.5427 42.33 36.108 42.33ZM49.9436 42.33C47.9783 42.33 46.4236 41.8387 45.2796 40.856C44.1356 39.8733 43.5636 38.502 43.5636 36.742C43.5636 35.0113 44.0696 33.64 45.0816 32.628C46.0936 31.616 47.5383 31.11 49.4156 31.11C50.6476 31.11 51.6963 31.3447 52.5616 31.814C53.4416 32.2833 54.1016 32.9287 54.5416 33.75C54.9816 34.5567 55.2016 35.4807 55.2016 36.522V37.798H46.2036C46.3943 39.3673 47.7583 40.152 50.2956 40.152C50.9703 40.152 51.6596 40.0933 52.3636 39.976C53.0676 39.8587 53.6836 39.6973 54.2116 39.492V41.626C53.7129 41.8313 53.0676 42 52.2756 42.132C51.4983 42.264 50.7209 42.33 49.9436 42.33ZM52.5836 35.906C52.5543 35.07 52.2536 34.4247 51.6816 33.97C51.1243 33.5153 50.3543 33.288 49.3716 33.288C48.4036 33.288 47.6409 33.5227 47.0836 33.992C46.5263 34.4613 46.2329 35.0993 46.2036 35.906H52.5836ZM61.6558 42.33C60.4972 42.33 59.6172 42.0073 59.0158 41.362C58.4145 40.7167 58.1138 39.8073 58.1138 38.634V33.552H56.5298V31.44H58.1138V28.272H60.8858V31.44H63.4158V33.552H60.8858V38.282C60.8858 38.9567 61.0105 39.4407 61.2598 39.734C61.5092 40.0127 61.9638 40.152 62.6238 40.152C63.0785 40.152 63.5258 40.0493 63.9658 39.844V41.956C63.3352 42.2053 62.5652 42.33 61.6558 42.33ZM74.5489 33.552H72.9869V31.44H74.5489V29.614C74.5489 28.3233 74.9302 27.3407 75.6929 26.666C76.4555 25.9767 77.4602 25.632 78.7069 25.632C79.4109 25.632 80.0269 25.7347 80.5549 25.94V28.184C80.1589 28.008 79.7262 27.92 79.2569 27.92C78.5969 27.92 78.1055 28.0667 77.7829 28.36C77.4749 28.6533 77.3209 29.1373 77.3209 29.812V31.44H79.8949V33.552H77.3209V42H74.5489V33.552ZM81.7731 31.44H84.4571V33.134C84.8825 32.562 85.4838 32.1367 86.2611 31.858C87.0531 31.5793 87.9551 31.44 88.9671 31.44V33.552C87.8965 33.552 86.9651 33.7207 86.1731 34.058C85.3958 34.3807 84.8531 34.894 84.5451 35.598V42H81.7731V31.44ZM96.0061 42.33C94.0408 42.33 92.4861 41.8387 91.3421 40.856C90.1981 39.8733 89.6261 38.502 89.6261 36.742C89.6261 35.0113 90.1321 33.64 91.1441 32.628C92.1561 31.616 93.6008 31.11 95.4781 31.11C96.7101 31.11 97.7588 31.3447 98.6241 31.814C99.5041 32.2833 100.164 32.9287 100.604 33.75C101.044 34.5567 101.264 35.4807 101.264 36.522V37.798H92.2661C92.4568 39.3673 93.8208 40.152 96.3581 40.152C97.0328 40.152 97.7221 40.0933 98.4261 39.976C99.1301 39.8587 99.7461 39.6973 100.274 39.492V41.626C99.7754 41.8313 99.1301 42 98.3381 42.132C97.5608 42.264 96.7834 42.33 96.0061 42.33ZM98.6461 35.906C98.6168 35.07 98.3161 34.4247 97.7441 33.97C97.1868 33.5153 96.4168 33.288 95.4341 33.288C94.4661 33.288 93.7034 33.5227 93.1461 33.992C92.5888 34.4613 92.2954 35.0993 92.2661 35.906H98.6461ZM109.412 42.33C107.447 42.33 105.892 41.8387 104.748 40.856C103.604 39.8733 103.032 38.502 103.032 36.742C103.032 35.0113 103.538 33.64 104.55 32.628C105.562 31.616 107.007 31.11 108.884 31.11C110.116 31.11 111.165 31.3447 112.03 31.814C112.91 32.2833 113.57 32.9287 114.01 33.75C114.45 34.5567 114.67 35.4807 114.67 36.522V37.798H105.672C105.863 39.3673 107.227 40.152 109.764 40.152C110.439 40.152 111.128 40.0933 111.832 39.976C112.536 39.8587 113.152 39.6973 113.68 39.492V41.626C113.182 41.8313 112.536 42 111.744 42.132C110.967 42.264 110.19 42.33 109.412 42.33ZM112.052 35.906C112.023 35.07 111.722 34.4247 111.15 33.97C110.593 33.5153 109.823 33.288 108.84 33.288C107.872 33.288 107.11 33.5227 106.552 33.992C105.995 34.4613 105.702 35.0993 105.672 35.906H112.052ZM129.052 42.33C127.894 42.33 127.014 42.0073 126.412 41.362C125.811 40.7167 125.51 39.8073 125.51 38.634V33.552H123.926V31.44H125.51V28.272H128.282V31.44H130.812V33.552H128.282V38.282C128.282 38.9567 128.407 39.4407 128.656 39.734C128.906 40.0127 129.36 40.152 130.02 40.152C130.475 40.152 130.922 40.0493 131.362 39.844V41.956C130.732 42.2053 129.962 42.33 129.052 42.33ZM133.336 31.44H136.02V33.134C136.445 32.562 137.046 32.1367 137.824 31.858C138.616 31.5793 139.518 31.44 140.53 31.44V33.552C139.459 33.552 138.528 33.7207 137.736 34.058C136.958 34.3807 136.416 34.894 136.108 35.598V42H133.336V31.44ZM143.857 29.592C143.417 29.592 143.043 29.4453 142.735 29.152C142.441 28.8587 142.295 28.492 142.295 28.052C142.295 27.612 142.441 27.2453 142.735 26.952C143.043 26.644 143.417 26.49 143.857 26.49C144.297 26.49 144.671 26.644 144.979 26.952C145.287 27.2453 145.441 27.612 145.441 28.052C145.441 28.492 145.287 28.8587 144.979 29.152C144.671 29.4453 144.297 29.592 143.857 29.592ZM142.449 31.44H145.265V42H142.449V31.44ZM151.946 42.33C150.685 42.33 149.651 42 148.844 41.34C148.037 40.6653 147.634 39.7633 147.634 38.634C147.634 37.4607 148.015 36.544 148.778 35.884C149.541 35.224 150.611 34.894 151.99 34.894C153.325 34.894 154.476 35.1653 155.444 35.708V35.422C155.444 34.674 155.209 34.1313 154.74 33.794C154.285 33.4567 153.545 33.288 152.518 33.288C151.873 33.288 151.235 33.354 150.604 33.486C149.973 33.6033 149.416 33.772 148.932 33.992V31.814C149.372 31.6087 149.959 31.44 150.692 31.308C151.44 31.176 152.159 31.11 152.848 31.11C154.681 31.11 156.038 31.506 156.918 32.298C157.798 33.0753 158.238 34.1607 158.238 35.554V42H155.62V40.966C155.165 41.406 154.645 41.7433 154.058 41.978C153.486 42.2127 152.782 42.33 151.946 42.33ZM152.628 40.306C153.244 40.306 153.801 40.1887 154.3 39.954C154.799 39.7047 155.18 39.3673 155.444 38.942V37.776C154.637 37.204 153.713 36.918 152.672 36.918C151.191 36.918 150.45 37.49 150.45 38.634C150.45 39.1913 150.633 39.6093 151 39.888C151.381 40.1667 151.924 40.306 152.628 40.306ZM160.771 25.742H163.543V42H160.771V25.742Z" fill="white"/>
<path d="M217 19C217.833 23.1667 222 32.1 232 34.5C227 36.5 217 42.3 217 49.5" stroke="white" stroke-width="2"/>
<path d="M190 35L232 35" stroke="white" stroke-width="2"/>
<defs>
<filter id="filter0_d_5_3826" x="0" y="0" width="264" height="73" filterUnits="userSpaceOnUse" color-interpolation-filters="sRGB">
<feFlood flood-opacity="0" result="BackgroundImageFix"/>
<feColorMatrix in="SourceAlpha" type="matrix" values="0 0 0 0 0 0 0 0 0 0 0 0 0 0 0 0 0 0 127 0" result="hardAlpha"/>
<feOffset dx="5" dy="5"/>
<feComposite in2="hardAlpha" operator="out"/>
<feColorMatrix type="matrix" values="0 0 0 0 0 0 0 0 0 0 0 0 0 0 0 0 0 0 1 0"/>
<feBlend mode="normal" in2="BackgroundImageFix" result="effect1_dropShadow_5_3826"/>
<feBlend mode="normal" in="SourceGraphic" in2="effect1_dropShadow_5_3826" result="shape"/>
</filter>
</defs>
</svg>
