<svg width="103" height="30" viewBox="0 0 103 30" fill="none" xmlns="http://www.w3.org/2000/svg">
<path d="M8.32688 22.3C6.86021 22.3 5.56021 22.0067 4.42688 21.42C3.29354 20.82 2.41354 19.9733 1.78688 18.88C1.16021 17.7733 0.846875 16.4867 0.846875 15.02C0.846875 13.5533 1.16021 12.2733 1.78688 11.18C2.41354 10.0733 3.29354 9.22 4.42688 8.62C5.56021 8.02 6.86021 7.72 8.32688 7.72C9.32688 7.72 10.2202 7.82667 11.0069 8.04C11.7935 8.25333 12.5069 8.59333 13.1469 9.06V11.48C12.5602 10.9733 11.8869 10.6067 11.1269 10.38C10.3669 10.1533 9.50688 10.04 8.54688 10.04C7.58688 10.04 6.71354 10.2467 5.92687 10.66C5.15354 11.06 4.54021 11.64 4.08688 12.4C3.63354 13.1467 3.40688 14.02 3.40688 15.02C3.40688 16.0333 3.62021 16.92 4.04688 17.68C4.47354 18.4267 5.06688 19.0067 5.82688 19.42C6.58688 19.82 7.45354 20.02 8.42688 20.02C9.45354 20.02 10.3002 19.8467 10.9669 19.5V16.36H8.60688V14.34H13.5069V20.86C12.2669 21.82 10.5402 22.3 8.32688 22.3ZM20.9047 22.3C19.118 22.3 17.7047 21.8533 16.6647 20.96C15.6247 20.0667 15.1047 18.82 15.1047 17.22C15.1047 15.6467 15.5647 14.4 16.4847 13.48C17.4047 12.56 18.718 12.1 20.4247 12.1C21.5447 12.1 22.498 12.3133 23.2847 12.74C24.0847 13.1667 24.6847 13.7533 25.0847 14.5C25.4847 15.2333 25.6847 16.0733 25.6847 17.02V18.18H17.5047C17.678 19.6067 18.918 20.32 21.2247 20.32C21.838 20.32 22.4647 20.2667 23.1047 20.16C23.7447 20.0533 24.3047 19.9067 24.7847 19.72V21.66C24.3314 21.8467 23.7447 22 23.0247 22.12C22.318 22.24 21.6114 22.3 20.9047 22.3ZM23.3047 16.46C23.278 15.7 23.0047 15.1133 22.4847 14.7C21.978 14.2867 21.278 14.08 20.3847 14.08C19.5047 14.08 18.8114 14.2933 18.3047 14.72C17.798 15.1467 17.5314 15.7267 17.5047 16.46H23.3047ZM31.5522 22.3C30.4989 22.3 29.6989 22.0067 29.1522 21.42C28.6055 20.8333 28.3322 20.0067 28.3322 18.94V14.32H26.8922V12.4H28.3322V9.52H30.8522V12.4H33.1522V14.32H30.8522V18.62C30.8522 19.2333 30.9655 19.6733 31.1922 19.94C31.4189 20.1933 31.8322 20.32 32.4322 20.32C32.8455 20.32 33.2522 20.2267 33.6522 20.04V21.96C33.0789 22.1867 32.3789 22.3 31.5522 22.3ZM46.6931 22.3C45.8665 22.3 45.0465 22.22 44.2331 22.06C43.4331 21.9133 42.7731 21.7133 42.2531 21.46V19.28C42.9198 19.6 43.6198 19.84 44.3531 20C45.0865 20.16 45.8065 20.24 46.5131 20.24C47.4065 20.24 48.0865 20.0733 48.5531 19.74C49.0198 19.4067 49.2531 18.9467 49.2531 18.36C49.2531 17.9467 49.1465 17.6067 48.9331 17.34C48.7198 17.06 48.4065 16.82 47.9931 16.62C47.5798 16.4067 46.9465 16.1333 46.0931 15.8C44.7865 15.2667 43.8398 14.6733 43.2531 14.02C42.6665 13.3667 42.3731 12.5533 42.3731 11.58C42.3731 10.82 42.5798 10.1467 42.9931 9.56C43.4065 8.97333 43.9865 8.52 44.7331 8.2C45.4798 7.88 46.3398 7.72 47.3131 7.72C48.1131 7.72 48.8198 7.78667 49.4331 7.92C50.0598 8.04 50.6731 8.23333 51.2731 8.5V10.62C50.1131 10.06 48.9398 9.78 47.7531 9.78C46.8998 9.78 46.2398 9.94 45.7731 10.26C45.3065 10.5667 45.0731 11.0067 45.0731 11.58C45.0731 11.9933 45.1798 12.3333 45.3931 12.6C45.6065 12.8533 45.8865 13.0733 46.2331 13.26C46.5931 13.4333 47.2331 13.7133 48.1531 14.1C49.0865 14.4867 49.8198 14.8667 50.3531 15.24C50.8998 15.6133 51.3065 16.0533 51.5731 16.56C51.8531 17.0533 51.9931 17.66 51.9931 18.38C51.9931 19.62 51.5465 20.5867 50.6531 21.28C49.7598 21.96 48.4398 22.3 46.6931 22.3ZM57.1577 22.3C56.1043 22.3 55.3043 22.0067 54.7577 21.42C54.211 20.8333 53.9377 20.0067 53.9377 18.94V14.32H52.4977V12.4H53.9377V9.52H56.4577V12.4H58.7577V14.32H56.4577V18.62C56.4577 19.2333 56.571 19.6733 56.7977 19.94C57.0243 20.1933 57.4377 20.32 58.0377 20.32C58.451 20.32 58.8577 20.2267 59.2577 20.04V21.96C58.6843 22.1867 57.9843 22.3 57.1577 22.3ZM64.2786 22.3C63.1319 22.3 62.1919 22 61.4586 21.4C60.7253 20.7867 60.3586 19.9667 60.3586 18.94C60.3586 17.8733 60.7053 17.04 61.3986 16.44C62.0919 15.84 63.0653 15.54 64.3186 15.54C65.5319 15.54 66.5786 15.7867 67.4586 16.28V16.02C67.4586 15.34 67.2453 14.8467 66.8186 14.54C66.4053 14.2333 65.7319 14.08 64.7986 14.08C64.2119 14.08 63.6319 14.14 63.0586 14.26C62.4853 14.3667 61.9786 14.52 61.5386 14.72V12.74C61.9386 12.5533 62.4719 12.4 63.1386 12.28C63.8186 12.16 64.4719 12.1 65.0986 12.1C66.7653 12.1 67.9986 12.46 68.7986 13.18C69.5986 13.8867 69.9986 14.8733 69.9986 16.14V22H67.6186V21.06C67.2053 21.46 66.7319 21.7667 66.1986 21.98C65.6786 22.1933 65.0386 22.3 64.2786 22.3ZM64.8986 20.46C65.4586 20.46 65.9653 20.3533 66.4186 20.14C66.8719 19.9133 67.2186 19.6067 67.4586 19.22V18.16C66.7253 17.64 65.8853 17.38 64.9386 17.38C63.5919 17.38 62.9186 17.9 62.9186 18.94C62.9186 19.4467 63.0853 19.8267 63.4186 20.08C63.7653 20.3333 64.2586 20.46 64.8986 20.46ZM72.3016 12.4H74.7416V13.94C75.1282 13.42 75.6749 13.0333 76.3816 12.78C77.1016 12.5267 77.9216 12.4 78.8416 12.4V14.32C77.8682 14.32 77.0216 14.4733 76.3016 14.78C75.5949 15.0733 75.1016 15.54 74.8216 16.18V22H72.3016V12.4ZM84.3061 22.3C83.2528 22.3 82.4528 22.0067 81.9061 21.42C81.3594 20.8333 81.0861 20.0067 81.0861 18.94V14.32H79.6461V12.4H81.0861V9.52H83.6061V12.4H85.9061V14.32H83.6061V18.62C83.6061 19.2333 83.7194 19.6733 83.9461 19.94C84.1728 20.1933 84.5861 20.32 85.1861 20.32C85.5994 20.32 86.0061 20.2267 86.4061 20.04V21.96C85.8328 22.1867 85.1328 22.3 84.3061 22.3Z" fill="white"/>
</svg>
