<svg width="209" height="32" viewBox="0 0 209 32" fill="none" xmlns="http://www.w3.org/2000/svg">
<path d="M9.108 24.33C7.49467 24.33 6.06467 24.0073 4.818 23.362C3.57133 22.702 2.60333 21.7707 1.914 20.568C1.22467 19.3507 0.88 17.9353 0.88 16.322C0.88 14.7087 1.22467 13.3007 1.914 12.098C2.60333 10.8807 3.57133 9.942 4.818 9.282C6.06467 8.622 7.49467 8.292 9.108 8.292C10.208 8.292 11.1907 8.40933 12.056 8.644C12.9213 8.87867 13.706 9.25267 14.41 9.766V12.428C13.7647 11.8707 13.024 11.4673 12.188 11.218C11.352 10.9687 10.406 10.844 9.35 10.844C8.294 10.844 7.33333 11.0713 6.468 11.526C5.61733 11.966 4.94267 12.604 4.444 13.44C3.94533 14.2613 3.696 15.222 3.696 16.322C3.696 17.4367 3.93067 18.412 4.4 19.248C4.86933 20.0693 5.522 20.7073 6.358 21.162C7.194 21.602 8.14733 21.822 9.218 21.822C10.3473 21.822 11.2787 21.6313 12.012 21.25V17.796H9.416V15.574H14.806V22.746C13.442 23.802 11.5427 24.33 9.108 24.33ZM22.9436 24.33C20.9783 24.33 19.4236 23.8387 18.2796 22.856C17.1356 21.8733 16.5636 20.502 16.5636 18.742C16.5636 17.0113 17.0696 15.64 18.0816 14.628C19.0936 13.616 20.5383 13.11 22.4156 13.11C23.6476 13.11 24.6963 13.3447 25.5616 13.814C26.4416 14.2833 27.1016 14.9287 27.5416 15.75C27.9816 16.5567 28.2016 17.4807 28.2016 18.522V19.798H19.2036C19.3943 21.3673 20.7583 22.152 23.2956 22.152C23.9703 22.152 24.6596 22.0933 25.3636 21.976C26.0676 21.8587 26.6836 21.6973 27.2116 21.492V23.626C26.7129 23.8313 26.0676 24 25.2756 24.132C24.4983 24.264 23.7209 24.33 22.9436 24.33ZM25.5836 17.906C25.5543 17.07 25.2536 16.4247 24.6816 15.97C24.1243 15.5153 23.3543 15.288 22.3716 15.288C21.4036 15.288 20.6409 15.5227 20.0836 15.992C19.5263 16.4613 19.2329 17.0993 19.2036 17.906H25.5836ZM34.6558 24.33C33.4972 24.33 32.6172 24.0073 32.0158 23.362C31.4145 22.7167 31.1138 21.8073 31.1138 20.634V15.552H29.5298V13.44H31.1138V10.272H33.8858V13.44H36.4158V15.552H33.8858V20.282C33.8858 20.9567 34.0105 21.4407 34.2598 21.734C34.5092 22.0127 34.9638 22.152 35.6238 22.152C36.0785 22.152 36.5258 22.0493 36.9658 21.844V23.956C36.3352 24.2053 35.5652 24.33 34.6558 24.33ZM47.5489 15.552H45.9869V13.44H47.5489V11.614C47.5489 10.3233 47.9302 9.34067 48.6929 8.666C49.4555 7.97667 50.4602 7.632 51.7069 7.632C52.4109 7.632 53.0269 7.73467 53.5549 7.94V10.184C53.1589 10.008 52.7262 9.92 52.2569 9.92C51.5969 9.92 51.1055 10.0667 50.7829 10.36C50.4749 10.6533 50.3209 11.1373 50.3209 11.812V13.44H52.8949V15.552H50.3209V24H47.5489V15.552ZM54.7731 13.44H57.4571V15.134C57.8825 14.562 58.4838 14.1367 59.2611 13.858C60.0531 13.5793 60.9551 13.44 61.9671 13.44V15.552C60.8965 15.552 59.9651 15.7207 59.1731 16.058C58.3958 16.3807 57.8531 16.894 57.5451 17.598V24H54.7731V13.44ZM69.0061 24.33C67.0408 24.33 65.4861 23.8387 64.3421 22.856C63.1981 21.8733 62.6261 20.502 62.6261 18.742C62.6261 17.0113 63.1321 15.64 64.1441 14.628C65.1561 13.616 66.6008 13.11 68.4781 13.11C69.7101 13.11 70.7588 13.3447 71.6241 13.814C72.5041 14.2833 73.1641 14.9287 73.6041 15.75C74.0441 16.5567 74.2641 17.4807 74.2641 18.522V19.798H65.2661C65.4568 21.3673 66.8208 22.152 69.3581 22.152C70.0328 22.152 70.7221 22.0933 71.4261 21.976C72.1301 21.8587 72.7461 21.6973 73.2741 21.492V23.626C72.7754 23.8313 72.1301 24 71.3381 24.132C70.5608 24.264 69.7834 24.33 69.0061 24.33ZM71.6461 17.906C71.6168 17.07 71.3161 16.4247 70.7441 15.97C70.1868 15.5153 69.4168 15.288 68.4341 15.288C67.4661 15.288 66.7034 15.5227 66.1461 15.992C65.5888 16.4613 65.2954 17.0993 65.2661 17.906H71.6461ZM82.4123 24.33C80.447 24.33 78.8923 23.8387 77.7483 22.856C76.6043 21.8733 76.0323 20.502 76.0323 18.742C76.0323 17.0113 76.5383 15.64 77.5503 14.628C78.5623 13.616 80.007 13.11 81.8843 13.11C83.1163 13.11 84.165 13.3447 85.0303 13.814C85.9103 14.2833 86.5703 14.9287 87.0103 15.75C87.4503 16.5567 87.6703 17.4807 87.6703 18.522V19.798H78.6723C78.863 21.3673 80.227 22.152 82.7643 22.152C83.439 22.152 84.1283 22.0933 84.8323 21.976C85.5363 21.8587 86.1523 21.6973 86.6803 21.492V23.626C86.1817 23.8313 85.5363 24 84.7443 24.132C83.967 24.264 83.1897 24.33 82.4123 24.33ZM85.0523 17.906C85.023 17.07 84.7223 16.4247 84.1503 15.97C83.593 15.5153 82.823 15.288 81.8403 15.288C80.8723 15.288 80.1097 15.5227 79.5523 15.992C78.995 16.4613 78.7017 17.0993 78.6723 17.906H85.0523ZM102.052 24.33C100.894 24.33 100.014 24.0073 99.4123 23.362C98.811 22.7167 98.5103 21.8073 98.5103 20.634V15.552H96.9263V13.44H98.5103V10.272H101.282V13.44H103.812V15.552H101.282V20.282C101.282 20.9567 101.407 21.4407 101.656 21.734C101.906 22.0127 102.36 22.152 103.02 22.152C103.475 22.152 103.922 22.0493 104.362 21.844V23.956C103.732 24.2053 102.962 24.33 102.052 24.33ZM106.336 13.44H109.02V15.134C109.445 14.562 110.046 14.1367 110.824 13.858C111.616 13.5793 112.518 13.44 113.53 13.44V15.552C112.459 15.552 111.528 15.7207 110.736 16.058C109.958 16.3807 109.416 16.894 109.108 17.598V24H106.336V13.44ZM116.857 11.592C116.417 11.592 116.043 11.4453 115.735 11.152C115.441 10.8587 115.295 10.492 115.295 10.052C115.295 9.612 115.441 9.24533 115.735 8.952C116.043 8.644 116.417 8.49 116.857 8.49C117.297 8.49 117.671 8.644 117.979 8.952C118.287 9.24533 118.441 9.612 118.441 10.052C118.441 10.492 118.287 10.8587 117.979 11.152C117.671 11.4453 117.297 11.592 116.857 11.592ZM115.449 13.44H118.265V24H115.449V13.44ZM124.946 24.33C123.685 24.33 122.651 24 121.844 23.34C121.037 22.6653 120.634 21.7633 120.634 20.634C120.634 19.4607 121.015 18.544 121.778 17.884C122.541 17.224 123.611 16.894 124.99 16.894C126.325 16.894 127.476 17.1653 128.444 17.708V17.422C128.444 16.674 128.209 16.1313 127.74 15.794C127.285 15.4567 126.545 15.288 125.518 15.288C124.873 15.288 124.235 15.354 123.604 15.486C122.973 15.6033 122.416 15.772 121.932 15.992V13.814C122.372 13.6087 122.959 13.44 123.692 13.308C124.44 13.176 125.159 13.11 125.848 13.11C127.681 13.11 129.038 13.506 129.918 14.298C130.798 15.0753 131.238 16.1607 131.238 17.554V24H128.62V22.966C128.165 23.406 127.645 23.7433 127.058 23.978C126.486 24.2127 125.782 24.33 124.946 24.33ZM125.628 22.306C126.244 22.306 126.801 22.1887 127.3 21.954C127.799 21.7047 128.18 21.3673 128.444 20.942V19.776C127.637 19.204 126.713 18.918 125.672 18.918C124.191 18.918 123.45 19.49 123.45 20.634C123.45 21.1913 123.633 21.6093 124 21.888C124.381 22.1667 124.924 22.306 125.628 22.306ZM133.771 7.742H136.543V24H133.771V7.742Z" fill="white"/>
<path d="M190 1C190.833 5.16667 195 14.1 205 16.5C200 18.5 190 24.3 190 31.5" stroke="white" stroke-width="2"/>
<path d="M163 17L205 17" stroke="white" stroke-width="2"/>
</svg>
