<svg width="209" height="231" viewBox="0 0 209 231" fill="none" xmlns="http://www.w3.org/2000/svg">
<path d="M1.91523 198.03H5.63523L12.6552 213.39L19.6752 198.03H23.3952V219H19.7952V205.38L13.5552 219H11.7552L5.51523 205.38V219H1.91523V198.03ZM34.8234 219.45C33.1434 219.45 31.6634 219.15 30.3834 218.55C29.1234 217.93 28.1434 217.05 27.4434 215.91C26.7434 214.75 26.3934 213.38 26.3934 211.8C26.3934 210.26 26.7334 208.92 27.4134 207.78C28.1134 206.62 29.1034 205.73 30.3834 205.11C31.6634 204.47 33.1434 204.15 34.8234 204.15C36.5034 204.15 37.9734 204.47 39.2334 205.11C40.5134 205.73 41.5034 206.62 42.2034 207.78C42.9034 208.92 43.2534 210.26 43.2534 211.8C43.2534 213.38 42.9034 214.75 42.2034 215.91C41.5034 217.05 40.5134 217.93 39.2334 218.55C37.9734 219.15 36.5034 219.45 34.8234 219.45ZM34.8234 216.48C36.2034 216.48 37.3034 216.05 38.1234 215.19C38.9434 214.31 39.3534 213.18 39.3534 211.8C39.3534 210.34 38.9434 209.2 38.1234 208.38C37.3234 207.54 36.2234 207.12 34.8234 207.12C33.4234 207.12 32.3134 207.54 31.4934 208.38C30.6934 209.2 30.2934 210.34 30.2934 211.8C30.2934 213.18 30.7034 214.31 31.5234 215.19C32.3434 216.05 33.4434 216.48 34.8234 216.48ZM55.162 219.45C53.942 219.45 52.892 219.29 52.012 218.97C51.132 218.63 50.282 218.08 49.462 217.32V219H45.802V196.83H49.582V206.01C50.262 205.39 51.082 204.93 52.042 204.63C53.022 204.31 54.062 204.15 55.162 204.15C56.622 204.15 57.922 204.48 59.062 205.14C60.222 205.78 61.122 206.68 61.762 207.84C62.422 209 62.752 210.33 62.752 211.83C62.752 213.35 62.422 214.69 61.762 215.85C61.122 216.99 60.222 217.88 59.062 218.52C57.922 219.14 56.622 219.45 55.162 219.45ZM54.232 216.48C55.592 216.48 56.712 216.05 57.592 215.19C58.472 214.33 58.912 213.21 58.912 211.83C58.912 210.45 58.472 209.32 57.592 208.44C56.712 207.56 55.592 207.12 54.232 207.12C53.152 207.12 52.182 207.42 51.322 208.02C50.482 208.6 49.902 209.38 49.582 210.36V213.27C49.922 214.25 50.512 215.03 51.352 215.61C52.192 216.19 53.152 216.48 54.232 216.48ZM67.8831 202.08C67.2831 202.08 66.7731 201.88 66.3531 201.48C65.9531 201.08 65.7531 200.58 65.7531 199.98C65.7531 199.38 65.9531 198.88 66.3531 198.48C66.7731 198.06 67.2831 197.85 67.8831 197.85C68.4831 197.85 68.9931 198.06 69.4131 198.48C69.8331 198.88 70.0431 199.38 70.0431 199.98C70.0431 200.58 69.8331 201.08 69.4131 201.48C68.9931 201.88 68.4831 202.08 67.8831 202.08ZM65.9631 204.6H69.8031V219H65.9631V204.6ZM73.634 196.83H77.414V219H73.634V196.83ZM89.1168 219.45C86.4368 219.45 84.3168 218.78 82.7568 217.44C81.1968 216.1 80.4168 214.23 80.4168 211.83C80.4168 209.47 81.1068 207.6 82.4868 206.22C83.8668 204.84 85.8368 204.15 88.3968 204.15C90.0768 204.15 91.5068 204.47 92.6868 205.11C93.8868 205.75 94.7868 206.63 95.3868 207.75C95.9868 208.85 96.2868 210.11 96.2868 211.53V213.27H84.0168C84.2768 215.41 86.1368 216.48 89.5968 216.48C90.5168 216.48 91.4568 216.4 92.4168 216.24C93.3768 216.08 94.2168 215.86 94.9368 215.58V218.49C94.2568 218.77 93.3768 219 92.2968 219.18C91.2368 219.36 90.1768 219.45 89.1168 219.45ZM92.7168 210.69C92.6768 209.55 92.2668 208.67 91.4868 208.05C90.7268 207.43 89.6768 207.12 88.3368 207.12C87.0168 207.12 85.9768 207.44 85.2168 208.08C84.4568 208.72 84.0568 209.59 84.0168 210.69H92.7168ZM110.109 198.03H117.129C119.409 198.03 121.389 198.45 123.069 199.29C124.749 200.13 126.039 201.33 126.939 202.89C127.839 204.45 128.289 206.29 128.289 208.41C128.289 211.89 127.279 214.53 125.259 216.33C123.239 218.11 120.419 219 116.799 219H110.109V198.03ZM116.859 215.85C119.299 215.85 121.169 215.2 122.469 213.9C123.789 212.58 124.449 210.75 124.449 208.41C124.449 206.99 124.159 205.74 123.579 204.66C122.999 203.56 122.169 202.71 121.089 202.11C120.009 201.49 118.729 201.18 117.249 201.18H113.919V215.85H116.859ZM139.39 219.45C136.71 219.45 134.59 218.78 133.03 217.44C131.47 216.1 130.69 214.23 130.69 211.83C130.69 209.47 131.38 207.6 132.76 206.22C134.14 204.84 136.11 204.15 138.67 204.15C140.35 204.15 141.78 204.47 142.96 205.11C144.16 205.75 145.06 206.63 145.66 207.75C146.26 208.85 146.56 210.11 146.56 211.53V213.27H134.29C134.55 215.41 136.41 216.48 139.87 216.48C140.79 216.48 141.73 216.4 142.69 216.24C143.65 216.08 144.49 215.86 145.21 215.58V218.49C144.53 218.77 143.65 219 142.57 219.18C141.51 219.36 140.45 219.45 139.39 219.45ZM142.99 210.69C142.95 209.55 142.54 208.67 141.76 208.05C141 207.43 139.95 207.12 138.61 207.12C137.29 207.12 136.25 207.44 135.49 208.08C134.73 208.72 134.33 209.59 134.29 210.69H142.99ZM155.181 219.45C154.141 219.45 153.031 219.33 151.851 219.09C150.671 218.85 149.751 218.52 149.091 218.1V214.89C149.871 215.37 150.801 215.76 151.881 216.06C152.961 216.34 153.981 216.48 154.941 216.48C155.901 216.48 156.601 216.4 157.041 216.24C157.481 216.06 157.701 215.74 157.701 215.28C157.701 214.92 157.581 214.63 157.341 214.41C157.121 214.17 156.751 213.96 156.231 213.78C155.731 213.58 154.951 213.34 153.891 213.06C152.691 212.72 151.741 212.37 151.041 212.01C150.361 211.65 149.841 211.2 149.481 210.66C149.141 210.1 148.971 209.38 148.971 208.5C148.971 207.06 149.541 205.98 150.681 205.26C151.821 204.52 153.361 204.15 155.301 204.15C156.301 204.15 157.291 204.25 158.271 204.45C159.271 204.63 160.051 204.89 160.611 205.23V208.32C160.011 207.96 159.281 207.67 158.421 207.45C157.561 207.23 156.681 207.12 155.781 207.12C154.801 207.12 154.061 207.22 153.561 207.42C153.061 207.6 152.811 207.96 152.811 208.5C152.811 208.86 152.941 209.15 153.201 209.37C153.481 209.57 153.841 209.75 154.281 209.91C154.721 210.05 155.521 210.27 156.681 210.57C157.921 210.91 158.891 211.28 159.591 211.68C160.291 212.08 160.791 212.56 161.091 213.12C161.391 213.68 161.541 214.38 161.541 215.22C161.541 216.5 160.991 217.53 159.891 218.31C158.811 219.07 157.241 219.45 155.181 219.45ZM166.672 202.08C166.072 202.08 165.562 201.88 165.142 201.48C164.742 201.08 164.542 200.58 164.542 199.98C164.542 199.38 164.742 198.88 165.142 198.48C165.562 198.06 166.072 197.85 166.672 197.85C167.272 197.85 167.782 198.06 168.202 198.48C168.622 198.88 168.832 199.38 168.832 199.98C168.832 200.58 168.622 201.08 168.202 201.48C167.782 201.88 167.272 202.08 166.672 202.08ZM164.752 204.6H168.592V219H164.752V204.6ZM180.043 225.9C179.083 225.9 178.123 225.81 177.163 225.63C176.203 225.45 175.403 225.21 174.763 224.91V221.91C176.323 222.59 178.083 222.93 180.043 222.93C181.803 222.93 183.063 222.56 183.823 221.82C184.603 221.08 184.993 219.98 184.993 218.52V217.59C184.313 218.21 183.503 218.68 182.563 219C181.623 219.3 180.613 219.45 179.533 219.45C178.073 219.45 176.753 219.13 175.573 218.49C174.393 217.83 173.473 216.92 172.813 215.76C172.153 214.6 171.823 213.27 171.823 211.77C171.823 210.25 172.143 208.92 172.783 207.78C173.443 206.62 174.343 205.73 175.483 205.11C176.643 204.47 177.953 204.15 179.413 204.15C180.633 204.15 181.683 204.32 182.563 204.66C183.443 204.98 184.293 205.52 185.113 206.28V204.6H188.773V218.13C188.773 220.61 188.053 222.52 186.613 223.86C185.193 225.22 183.003 225.9 180.043 225.9ZM180.343 216.48C181.423 216.48 182.383 216.19 183.223 215.61C184.083 215.01 184.673 214.22 184.993 213.24V210.33C184.653 209.35 184.063 208.57 183.223 207.99C182.383 207.41 181.423 207.12 180.343 207.12C178.983 207.12 177.863 207.55 176.983 208.41C176.103 209.27 175.663 210.39 175.663 211.77C175.663 213.15 176.103 214.28 176.983 215.16C177.863 216.04 178.983 216.48 180.343 216.48ZM192.374 204.6H196.034V206.55C196.714 205.73 197.524 205.13 198.464 204.75C199.404 204.35 200.394 204.15 201.434 204.15C203.374 204.15 204.824 204.68 205.784 205.74C206.744 206.78 207.224 208.17 207.224 209.91V219H203.444V210.27C203.444 208.17 202.464 207.12 200.504 207.12C199.644 207.12 198.834 207.33 198.074 207.75C197.314 208.15 196.674 208.76 196.154 209.58V219H192.374V204.6Z" fill="#0B2131"/>
<g filter="url(#filter0_d_5_3770)">
<rect x="25" width="160" height="160" rx="32" fill="white"/>
<rect x="26" y="1" width="158" height="158" rx="31" stroke="#0B2131" stroke-width="2"/>
</g>
<path d="M122.938 56.9375H133.188V67.1875H122.938V56.9375ZM122.938 72.3125H133.188V82.5625H122.938V72.3125ZM107.562 56.9375H117.812V67.1875H107.562V56.9375ZM107.562 72.3125H117.812V82.5625H107.562V72.3125Z" fill="#F3DF6B" stroke="#0B2131" stroke-width="3"/>
<path d="M101.156 105.625C103.279 105.625 105 103.904 105 101.781C105 99.6584 103.279 97.9375 101.156 97.9375C99.0334 97.9375 97.3125 99.6584 97.3125 101.781C97.3125 103.904 99.0334 105.625 101.156 105.625Z" fill="#0B2131"/>
<path d="M117.812 115.875H84.5C83.1412 115.874 81.8384 115.333 80.8776 114.372C79.9167 113.412 79.3764 112.109 79.375 110.75V49.25C79.3764 47.8912 79.9167 46.5884 80.8776 45.6276C81.8384 44.6667 83.1412 44.1264 84.5 44.125H117.812V49.25H84.5V110.75H117.812V90.25H122.938V110.75C122.936 112.109 122.396 113.412 121.435 114.372C120.474 115.333 119.171 115.874 117.812 115.875Z" fill="#0B2131"/>
<defs>
<filter id="filter0_d_5_3770" x="25" y="0" width="166" height="166" filterUnits="userSpaceOnUse" color-interpolation-filters="sRGB">
<feFlood flood-opacity="0" result="BackgroundImageFix"/>
<feColorMatrix in="SourceAlpha" type="matrix" values="0 0 0 0 0 0 0 0 0 0 0 0 0 0 0 0 0 0 127 0" result="hardAlpha"/>
<feOffset dx="6" dy="6"/>
<feComposite in2="hardAlpha" operator="out"/>
<feColorMatrix type="matrix" values="0 0 0 0 0 0 0 0 0 0 0 0 0 0 0 0 0 0 1 0"/>
<feBlend mode="normal" in2="BackgroundImageFix" result="effect1_dropShadow_5_3770"/>
<feBlend mode="normal" in="SourceGraphic" in2="effect1_dropShadow_5_3770" result="shape"/>
</filter>
</defs>
</svg>
