<svg width="178" height="231" viewBox="0 0 178 231" fill="none" xmlns="http://www.w3.org/2000/svg">
<path d="M1.60625 198.03H5.56625L9.73625 212.85L13.8463 198.03H16.7863L20.8963 212.85L25.0663 198.03H29.0263L23.0563 219H19.5163L15.3163 204.42L11.1163 219H7.57625L1.60625 198.03ZM37.8746 219.45C35.1946 219.45 33.0746 218.78 31.5146 217.44C29.9546 216.1 29.1746 214.23 29.1746 211.83C29.1746 209.47 29.8646 207.6 31.2446 206.22C32.6246 204.84 34.5946 204.15 37.1546 204.15C38.8346 204.15 40.2646 204.47 41.4446 205.11C42.6446 205.75 43.5446 206.63 44.1446 207.75C44.7446 208.85 45.0446 210.11 45.0446 211.53V213.27H32.7746C33.0346 215.41 34.8946 216.48 38.3546 216.48C39.2746 216.48 40.2146 216.4 41.1746 216.24C42.1346 216.08 42.9746 215.86 43.6946 215.58V218.49C43.0146 218.77 42.1346 219 41.0546 219.18C39.9946 219.36 38.9346 219.45 37.8746 219.45ZM41.4746 210.69C41.4346 209.55 41.0246 208.67 40.2446 208.05C39.4846 207.43 38.4346 207.12 37.0946 207.12C35.7746 207.12 34.7346 207.44 33.9746 208.08C33.2146 208.72 32.8146 209.59 32.7746 210.69H41.4746ZM57.4159 219.45C56.1959 219.45 55.1459 219.29 54.2659 218.97C53.3859 218.63 52.5359 218.08 51.7159 217.32V219H48.0559V196.83H51.8359V206.01C52.5159 205.39 53.3359 204.93 54.2959 204.63C55.2759 204.31 56.3159 204.15 57.4159 204.15C58.8759 204.15 60.1759 204.48 61.3159 205.14C62.4759 205.78 63.3759 206.68 64.0159 207.84C64.6759 209 65.0059 210.33 65.0059 211.83C65.0059 213.35 64.6759 214.69 64.0159 215.85C63.3759 216.99 62.4759 217.88 61.3159 218.52C60.1759 219.14 58.8759 219.45 57.4159 219.45ZM56.4859 216.48C57.8459 216.48 58.9659 216.05 59.8459 215.19C60.7259 214.33 61.1659 213.21 61.1659 211.83C61.1659 210.45 60.7259 209.32 59.8459 208.44C58.9659 207.56 57.8459 207.12 56.4859 207.12C55.4059 207.12 54.4359 207.42 53.5759 208.02C52.7359 208.6 52.1559 209.38 51.8359 210.36V213.27C52.1759 214.25 52.7659 215.03 53.6059 215.61C54.4459 216.19 55.4059 216.48 56.4859 216.48ZM78.8176 198.03H85.8376C88.1176 198.03 90.0976 198.45 91.7776 199.29C93.4576 200.13 94.7476 201.33 95.6476 202.89C96.5476 204.45 96.9976 206.29 96.9976 208.41C96.9976 211.89 95.9876 214.53 93.9676 216.33C91.9476 218.11 89.1276 219 85.5076 219H78.8176V198.03ZM85.5676 215.85C88.0076 215.85 89.8776 215.2 91.1776 213.9C92.4976 212.58 93.1576 210.75 93.1576 208.41C93.1576 206.99 92.8676 205.74 92.2876 204.66C91.7076 203.56 90.8776 202.71 89.7976 202.11C88.7176 201.49 87.4376 201.18 85.9576 201.18H82.6276V215.85H85.5676ZM108.099 219.45C105.419 219.45 103.299 218.78 101.739 217.44C100.179 216.1 99.3992 214.23 99.3992 211.83C99.3992 209.47 100.089 207.6 101.469 206.22C102.849 204.84 104.819 204.15 107.379 204.15C109.059 204.15 110.489 204.47 111.669 205.11C112.869 205.75 113.769 206.63 114.369 207.75C114.969 208.85 115.269 210.11 115.269 211.53V213.27H102.999C103.259 215.41 105.119 216.48 108.579 216.48C109.499 216.48 110.439 216.4 111.399 216.24C112.359 216.08 113.199 215.86 113.919 215.58V218.49C113.239 218.77 112.359 219 111.279 219.18C110.219 219.36 109.159 219.45 108.099 219.45ZM111.699 210.69C111.659 209.55 111.249 208.67 110.469 208.05C109.709 207.43 108.659 207.12 107.319 207.12C105.999 207.12 104.959 207.44 104.199 208.08C103.439 208.72 103.039 209.59 102.999 210.69H111.699ZM123.89 219.45C122.85 219.45 121.74 219.33 120.56 219.09C119.38 218.85 118.46 218.52 117.8 218.1V214.89C118.58 215.37 119.51 215.76 120.59 216.06C121.67 216.34 122.69 216.48 123.65 216.48C124.61 216.48 125.31 216.4 125.75 216.24C126.19 216.06 126.41 215.74 126.41 215.28C126.41 214.92 126.29 214.63 126.05 214.41C125.83 214.17 125.46 213.96 124.94 213.78C124.44 213.58 123.66 213.34 122.6 213.06C121.4 212.72 120.45 212.37 119.75 212.01C119.07 211.65 118.55 211.2 118.19 210.66C117.85 210.1 117.68 209.38 117.68 208.5C117.68 207.06 118.25 205.98 119.39 205.26C120.53 204.52 122.07 204.15 124.01 204.15C125.01 204.15 126 204.25 126.98 204.45C127.98 204.63 128.76 204.89 129.32 205.23V208.32C128.72 207.96 127.99 207.67 127.13 207.45C126.27 207.23 125.39 207.12 124.49 207.12C123.51 207.12 122.77 207.22 122.27 207.42C121.77 207.6 121.52 207.96 121.52 208.5C121.52 208.86 121.65 209.15 121.91 209.37C122.19 209.57 122.55 209.75 122.99 209.91C123.43 210.05 124.23 210.27 125.39 210.57C126.63 210.91 127.6 211.28 128.3 211.68C129 212.08 129.5 212.56 129.8 213.12C130.1 213.68 130.25 214.38 130.25 215.22C130.25 216.5 129.7 217.53 128.6 218.31C127.52 219.07 125.95 219.45 123.89 219.45ZM135.381 202.08C134.781 202.08 134.271 201.88 133.851 201.48C133.451 201.08 133.251 200.58 133.251 199.98C133.251 199.38 133.451 198.88 133.851 198.48C134.271 198.06 134.781 197.85 135.381 197.85C135.981 197.85 136.491 198.06 136.911 198.48C137.331 198.88 137.541 199.38 137.541 199.98C137.541 200.58 137.331 201.08 136.911 201.48C136.491 201.88 135.981 202.08 135.381 202.08ZM133.461 204.6H137.301V219H133.461V204.6ZM148.752 225.9C147.792 225.9 146.832 225.81 145.872 225.63C144.912 225.45 144.112 225.21 143.472 224.91V221.91C145.032 222.59 146.792 222.93 148.752 222.93C150.512 222.93 151.772 222.56 152.532 221.82C153.312 221.08 153.702 219.98 153.702 218.52V217.59C153.022 218.21 152.212 218.68 151.272 219C150.332 219.3 149.322 219.45 148.242 219.45C146.782 219.45 145.462 219.13 144.282 218.49C143.102 217.83 142.182 216.92 141.522 215.76C140.862 214.6 140.532 213.27 140.532 211.77C140.532 210.25 140.852 208.92 141.492 207.78C142.152 206.62 143.052 205.73 144.192 205.11C145.352 204.47 146.662 204.15 148.122 204.15C149.342 204.15 150.392 204.32 151.272 204.66C152.152 204.98 153.002 205.52 153.822 206.28V204.6H157.482V218.13C157.482 220.61 156.762 222.52 155.322 223.86C153.902 225.22 151.712 225.9 148.752 225.9ZM149.052 216.48C150.132 216.48 151.092 216.19 151.932 215.61C152.792 215.01 153.382 214.22 153.702 213.24V210.33C153.362 209.35 152.772 208.57 151.932 207.99C151.092 207.41 150.132 207.12 149.052 207.12C147.692 207.12 146.572 207.55 145.692 208.41C144.812 209.27 144.372 210.39 144.372 211.77C144.372 213.15 144.812 214.28 145.692 215.16C146.572 216.04 147.692 216.48 149.052 216.48ZM161.083 204.6H164.743V206.55C165.423 205.73 166.233 205.13 167.173 204.75C168.113 204.35 169.103 204.15 170.143 204.15C172.083 204.15 173.533 204.68 174.493 205.74C175.453 206.78 175.933 208.17 175.933 209.91V219H172.153V210.27C172.153 208.17 171.173 207.12 169.213 207.12C168.353 207.12 167.543 207.33 166.783 207.75C166.023 208.15 165.383 208.76 164.863 209.58V219H161.083V204.6Z" fill="#0B2131"/>
<g filter="url(#filter0_d_5_3757)">
<rect x="9" width="160" height="160" rx="32" fill="white"/>
<rect x="10" y="1" width="158" height="158" rx="31" stroke="#0B2131" stroke-width="2"/>
</g>
<path d="M115.875 49H126.625V59.75H115.875V49ZM115.875 65.125H126.625V75.875H115.875V65.125ZM99.75 49H110.5V59.75H99.75V49ZM99.75 65.125H110.5V75.875H99.75V65.125Z" fill="#F3DF6B" stroke="#0B2131" stroke-width="3"/>
<path d="M121.25 86.625V102.75H56.75V59.75H89V54.375H56.75C55.3245 54.375 53.9573 54.9413 52.9493 55.9493C51.9413 56.9573 51.375 58.3245 51.375 59.75V102.75C51.375 104.176 51.9413 105.543 52.9493 106.551C53.9573 107.559 55.3245 108.125 56.75 108.125H78.25V118.875H67.5V124.25H110.5V118.875H99.75V108.125H121.25C122.676 108.125 124.043 107.559 125.051 106.551C126.059 105.543 126.625 104.176 126.625 102.75V86.625H121.25ZM94.375 118.875H83.625V108.125H94.375V118.875Z" fill="#0B2131"/>
<defs>
<filter id="filter0_d_5_3757" x="9" y="0" width="166" height="166" filterUnits="userSpaceOnUse" color-interpolation-filters="sRGB">
<feFlood flood-opacity="0" result="BackgroundImageFix"/>
<feColorMatrix in="SourceAlpha" type="matrix" values="0 0 0 0 0 0 0 0 0 0 0 0 0 0 0 0 0 0 127 0" result="hardAlpha"/>
<feOffset dx="6" dy="6"/>
<feComposite in2="hardAlpha" operator="out"/>
<feColorMatrix type="matrix" values="0 0 0 0 0 0 0 0 0 0 0 0 0 0 0 0 0 0 1 0"/>
<feBlend mode="normal" in2="BackgroundImageFix" result="effect1_dropShadow_5_3757"/>
<feBlend mode="normal" in="SourceGraphic" in2="effect1_dropShadow_5_3757" result="shape"/>
</filter>
</defs>
</svg>
