<svg width="209" height="231" viewBox="0 0 209 231" fill="none" xmlns="http://www.w3.org/2000/svg">
<path d="M1.94453 198.03H5.75453V215.85H15.8345V219H1.94453V198.03ZM23.3671 219.45C21.6471 219.45 20.2371 219 19.1371 218.1C18.0371 217.18 17.4871 215.95 17.4871 214.41C17.4871 212.81 18.0071 211.56 19.0471 210.66C20.0871 209.76 21.5471 209.31 23.4271 209.31C25.2471 209.31 26.8171 209.68 28.1371 210.42V210.03C28.1371 209.01 27.8171 208.27 27.1771 207.81C26.5571 207.35 25.5471 207.12 24.1471 207.12C23.2671 207.12 22.3971 207.21 21.5371 207.39C20.6771 207.55 19.9171 207.78 19.2571 208.08V205.11C19.8571 204.83 20.6571 204.6 21.6571 204.42C22.6771 204.24 23.6571 204.15 24.5971 204.15C27.0971 204.15 28.9471 204.69 30.1471 205.77C31.3471 206.83 31.9471 208.31 31.9471 210.21V219H28.3771V217.59C27.7571 218.19 27.0471 218.65 26.2471 218.97C25.4671 219.29 24.5071 219.45 23.3671 219.45ZM24.2971 216.69C25.1371 216.69 25.8971 216.53 26.5771 216.21C27.2571 215.87 27.7771 215.41 28.1371 214.83V213.24C27.0371 212.46 25.7771 212.07 24.3571 212.07C22.3371 212.07 21.3271 212.85 21.3271 214.41C21.3271 215.17 21.5771 215.74 22.0771 216.12C22.5971 216.5 23.3371 216.69 24.2971 216.69ZM37.5039 224.94C36.9839 224.94 36.4339 224.9 35.8539 224.82C35.2939 224.76 34.8539 224.67 34.5339 224.55V221.67C35.0339 221.87 35.6539 221.97 36.3939 221.97C37.1539 221.97 37.7239 221.8 38.1039 221.46C38.4839 221.12 38.8139 220.58 39.0939 219.84L39.6639 218.34L33.4539 204.6H37.2639L41.7039 215.1L45.8739 204.6H49.6539L43.3539 220.29C42.7139 221.87 41.9339 223.04 41.0139 223.8C40.1139 224.56 38.9439 224.94 37.5039 224.94ZM57.9093 219.45C56.2293 219.45 54.7493 219.15 53.4693 218.55C52.2093 217.93 51.2293 217.05 50.5293 215.91C49.8293 214.75 49.4793 213.38 49.4793 211.8C49.4793 210.26 49.8193 208.92 50.4993 207.78C51.1993 206.62 52.1893 205.73 53.4693 205.11C54.7493 204.47 56.2293 204.15 57.9093 204.15C59.5893 204.15 61.0593 204.47 62.3193 205.11C63.5993 205.73 64.5893 206.62 65.2893 207.78C65.9893 208.92 66.3393 210.26 66.3393 211.8C66.3393 213.38 65.9893 214.75 65.2893 215.91C64.5893 217.05 63.5993 217.93 62.3193 218.55C61.0593 219.15 59.5893 219.45 57.9093 219.45ZM57.9093 216.48C59.2893 216.48 60.3893 216.05 61.2093 215.19C62.0293 214.31 62.4393 213.18 62.4393 211.8C62.4393 210.34 62.0293 209.2 61.2093 208.38C60.4093 207.54 59.3093 207.12 57.9093 207.12C56.5093 207.12 55.3993 207.54 54.5793 208.38C53.7793 209.2 53.3793 210.34 53.3793 211.8C53.3793 213.18 53.7893 214.31 54.6093 215.19C55.4293 216.05 56.5293 216.48 57.9093 216.48ZM74.9673 219.45C73.0273 219.45 71.5773 218.93 70.6173 217.89C69.6573 216.83 69.1773 215.43 69.1773 213.69V204.6H72.9573V213.33C72.9573 215.43 73.9373 216.48 75.8973 216.48C76.7573 216.48 77.5673 216.28 78.3273 215.88C79.0873 215.46 79.7273 214.84 80.2473 214.02V204.6H84.0273V219H80.3673V217.05C79.6873 217.87 78.8773 218.48 77.9373 218.88C76.9973 219.26 76.0073 219.45 74.9673 219.45ZM93.4279 219.45C91.8479 219.45 90.6479 219.01 89.8279 218.13C89.0079 217.25 88.5979 216.01 88.5979 214.41V207.48H86.4379V204.6H88.5979V200.28H92.3779V204.6H95.8279V207.48H92.3779V213.93C92.3779 214.85 92.5479 215.51 92.8879 215.91C93.2279 216.29 93.8479 216.48 94.7479 216.48C95.3679 216.48 95.9779 216.34 96.5779 216.06V218.94C95.7179 219.28 94.6679 219.45 93.4279 219.45ZM110.079 198.03H117.099C119.379 198.03 121.359 198.45 123.039 199.29C124.719 200.13 126.009 201.33 126.909 202.89C127.809 204.45 128.259 206.29 128.259 208.41C128.259 211.89 127.249 214.53 125.229 216.33C123.209 218.11 120.389 219 116.769 219H110.079V198.03ZM116.829 215.85C119.269 215.85 121.139 215.2 122.439 213.9C123.759 212.58 124.419 210.75 124.419 208.41C124.419 206.99 124.129 205.74 123.549 204.66C122.969 203.56 122.139 202.71 121.059 202.11C119.979 201.49 118.699 201.18 117.219 201.18H113.889V215.85H116.829ZM139.361 219.45C136.681 219.45 134.561 218.78 133.001 217.44C131.441 216.1 130.661 214.23 130.661 211.83C130.661 209.47 131.351 207.6 132.731 206.22C134.111 204.84 136.081 204.15 138.641 204.15C140.321 204.15 141.751 204.47 142.931 205.11C144.131 205.75 145.031 206.63 145.631 207.75C146.231 208.85 146.531 210.11 146.531 211.53V213.27H134.261C134.521 215.41 136.381 216.48 139.841 216.48C140.761 216.48 141.701 216.4 142.661 216.24C143.621 216.08 144.461 215.86 145.181 215.58V218.49C144.501 218.77 143.621 219 142.541 219.18C141.481 219.36 140.421 219.45 139.361 219.45ZM142.961 210.69C142.921 209.55 142.511 208.67 141.731 208.05C140.971 207.43 139.921 207.12 138.581 207.12C137.261 207.12 136.221 207.44 135.461 208.08C134.701 208.72 134.301 209.59 134.261 210.69H142.961ZM155.152 219.45C154.112 219.45 153.002 219.33 151.822 219.09C150.642 218.85 149.722 218.52 149.062 218.1V214.89C149.842 215.37 150.772 215.76 151.852 216.06C152.932 216.34 153.952 216.48 154.912 216.48C155.872 216.48 156.572 216.4 157.012 216.24C157.452 216.06 157.672 215.74 157.672 215.28C157.672 214.92 157.552 214.63 157.312 214.41C157.092 214.17 156.722 213.96 156.202 213.78C155.702 213.58 154.922 213.34 153.862 213.06C152.662 212.72 151.712 212.37 151.012 212.01C150.332 211.65 149.812 211.2 149.452 210.66C149.112 210.1 148.942 209.38 148.942 208.5C148.942 207.06 149.512 205.98 150.652 205.26C151.792 204.52 153.332 204.15 155.272 204.15C156.272 204.15 157.262 204.25 158.242 204.45C159.242 204.63 160.022 204.89 160.582 205.23V208.32C159.982 207.96 159.252 207.67 158.392 207.45C157.532 207.23 156.652 207.12 155.752 207.12C154.772 207.12 154.032 207.22 153.532 207.42C153.032 207.6 152.782 207.96 152.782 208.5C152.782 208.86 152.912 209.15 153.172 209.37C153.452 209.57 153.812 209.75 154.252 209.91C154.692 210.05 155.492 210.27 156.652 210.57C157.892 210.91 158.862 211.28 159.562 211.68C160.262 212.08 160.762 212.56 161.062 213.12C161.362 213.68 161.512 214.38 161.512 215.22C161.512 216.5 160.962 217.53 159.862 218.31C158.782 219.07 157.212 219.45 155.152 219.45ZM166.643 202.08C166.043 202.08 165.533 201.88 165.113 201.48C164.713 201.08 164.513 200.58 164.513 199.98C164.513 199.38 164.713 198.88 165.113 198.48C165.533 198.06 166.043 197.85 166.643 197.85C167.243 197.85 167.753 198.06 168.173 198.48C168.593 198.88 168.803 199.38 168.803 199.98C168.803 200.58 168.593 201.08 168.173 201.48C167.753 201.88 167.243 202.08 166.643 202.08ZM164.723 204.6H168.563V219H164.723V204.6ZM180.014 225.9C179.054 225.9 178.094 225.81 177.134 225.63C176.174 225.45 175.374 225.21 174.734 224.91V221.91C176.294 222.59 178.054 222.93 180.014 222.93C181.774 222.93 183.034 222.56 183.794 221.82C184.574 221.08 184.964 219.98 184.964 218.52V217.59C184.284 218.21 183.474 218.68 182.534 219C181.594 219.3 180.584 219.45 179.504 219.45C178.044 219.45 176.724 219.13 175.544 218.49C174.364 217.83 173.444 216.92 172.784 215.76C172.124 214.6 171.794 213.27 171.794 211.77C171.794 210.25 172.114 208.92 172.754 207.78C173.414 206.62 174.314 205.73 175.454 205.11C176.614 204.47 177.924 204.15 179.384 204.15C180.604 204.15 181.654 204.32 182.534 204.66C183.414 204.98 184.264 205.52 185.084 206.28V204.6H188.744V218.13C188.744 220.61 188.024 222.52 186.584 223.86C185.164 225.22 182.974 225.9 180.014 225.9ZM180.314 216.48C181.394 216.48 182.354 216.19 183.194 215.61C184.054 215.01 184.644 214.22 184.964 213.24V210.33C184.624 209.35 184.034 208.57 183.194 207.99C182.354 207.41 181.394 207.12 180.314 207.12C178.954 207.12 177.834 207.55 176.954 208.41C176.074 209.27 175.634 210.39 175.634 211.77C175.634 213.15 176.074 214.28 176.954 215.16C177.834 216.04 178.954 216.48 180.314 216.48ZM192.345 204.6H196.005V206.55C196.685 205.73 197.495 205.13 198.435 204.75C199.375 204.35 200.365 204.15 201.405 204.15C203.345 204.15 204.795 204.68 205.755 205.74C206.715 206.78 207.195 208.17 207.195 209.91V219H203.415V210.27C203.415 208.17 202.435 207.12 200.475 207.12C199.615 207.12 198.805 207.33 198.045 207.75C197.285 208.15 196.645 208.76 196.125 209.58V219H192.345V204.6Z" fill="#0B2131"/>
<g filter="url(#filter0_d_5_3748)">
<rect x="25" width="160" height="160" rx="32" fill="white"/>
<rect x="26" y="1" width="158" height="158" rx="31" stroke="#0B2131" stroke-width="2"/>
</g>
<rect x="77.4609" y="57.4619" width="55.7692" height="47.6923" stroke="#0B2131" stroke-width="4"/>
<rect x="69" y="49" width="14.5385" height="12.9231" fill="#F3DF6B" stroke="#0B2131" stroke-width="4"/>
<rect x="69" y="99.0771" width="14.5385" height="12.9231" fill="#F3DF6B" stroke="#0B2131" stroke-width="4"/>
<rect x="125.539" y="49" width="14.5385" height="12.9231" fill="#F3DF6B" stroke="#0B2131" stroke-width="4"/>
<rect x="125.539" y="99.0771" width="14.5385" height="12.9231" fill="#F3DF6B" stroke="#0B2131" stroke-width="4"/>
<defs>
<filter id="filter0_d_5_3748" x="25" y="0" width="166" height="166" filterUnits="userSpaceOnUse" color-interpolation-filters="sRGB">
<feFlood flood-opacity="0" result="BackgroundImageFix"/>
<feColorMatrix in="SourceAlpha" type="matrix" values="0 0 0 0 0 0 0 0 0 0 0 0 0 0 0 0 0 0 127 0" result="hardAlpha"/>
<feOffset dx="6" dy="6"/>
<feComposite in2="hardAlpha" operator="out"/>
<feColorMatrix type="matrix" values="0 0 0 0 0 0 0 0 0 0 0 0 0 0 0 0 0 0 1 0"/>
<feBlend mode="normal" in2="BackgroundImageFix" result="effect1_dropShadow_5_3748"/>
<feBlend mode="normal" in="SourceGraphic" in2="effect1_dropShadow_5_3748" result="shape"/>
</filter>
</defs>
</svg>
