<svg width="224" height="231" viewBox="0 0 224 231" fill="none" xmlns="http://www.w3.org/2000/svg">
<path d="M12.6524 219.45C10.4524 219.45 8.50242 219.01 6.80242 218.13C5.10242 217.23 3.78242 215.96 2.84242 214.32C1.90242 212.66 1.43242 210.73 1.43242 208.53C1.43242 206.33 1.90242 204.41 2.84242 202.77C3.78242 201.11 5.10242 199.83 6.80242 198.93C8.50242 198.03 10.4524 197.58 12.6524 197.58C14.1524 197.58 15.4924 197.74 16.6724 198.06C17.8524 198.38 18.9224 198.89 19.8824 199.59V203.22C19.0024 202.46 17.9924 201.91 16.8524 201.57C15.7124 201.23 14.4224 201.06 12.9824 201.06C11.5424 201.06 10.2324 201.37 9.05242 201.99C7.89242 202.59 6.97242 203.46 6.29242 204.6C5.61242 205.72 5.27242 207.03 5.27242 208.53C5.27242 210.05 5.59242 211.38 6.23242 212.52C6.87242 213.64 7.76242 214.51 8.90242 215.13C10.0424 215.73 11.3424 216.03 12.8024 216.03C14.3424 216.03 15.6124 215.77 16.6124 215.25V210.54H13.0724V207.51H20.4224V217.29C18.5624 218.73 15.9724 219.45 12.6524 219.45ZM23.4191 204.6H27.0791V206.91C27.6591 206.13 28.4791 205.55 29.5391 205.17C30.6191 204.79 31.8491 204.6 33.2291 204.6V207.48C31.7691 207.48 30.4991 207.71 29.4191 208.17C28.3591 208.61 27.6191 209.31 27.1991 210.27V219H23.4191V204.6ZM39.5683 219.45C37.8483 219.45 36.4383 219 35.3383 218.1C34.2383 217.18 33.6883 215.95 33.6883 214.41C33.6883 212.81 34.2083 211.56 35.2483 210.66C36.2883 209.76 37.7483 209.31 39.6283 209.31C41.4483 209.31 43.0183 209.68 44.3383 210.42V210.03C44.3383 209.01 44.0183 208.27 43.3783 207.81C42.7583 207.35 41.7483 207.12 40.3483 207.12C39.4683 207.12 38.5983 207.21 37.7383 207.39C36.8783 207.55 36.1183 207.78 35.4583 208.08V205.11C36.0583 204.83 36.8583 204.6 37.8583 204.42C38.8783 204.24 39.8583 204.15 40.7983 204.15C43.2983 204.15 45.1483 204.69 46.3483 205.77C47.5483 206.83 48.1483 208.31 48.1483 210.21V219H44.5783V217.59C43.9583 218.19 43.2483 218.65 42.4483 218.97C41.6683 219.29 40.7083 219.45 39.5683 219.45ZM40.4983 216.69C41.3383 216.69 42.0983 216.53 42.7783 216.21C43.4583 215.87 43.9783 215.41 44.3383 214.83V213.24C43.2383 212.46 41.9783 212.07 40.5583 212.07C38.5383 212.07 37.5283 212.85 37.5283 214.41C37.5283 215.17 37.7783 215.74 38.2783 216.12C38.7983 216.5 39.5383 216.69 40.4983 216.69ZM51.6027 204.6H55.2627V206.34C56.0427 205.6 56.8927 205.05 57.8127 204.69C58.7327 204.33 59.7827 204.15 60.9627 204.15C62.4227 204.15 63.7227 204.47 64.8627 205.11C66.0227 205.73 66.9227 206.62 67.5627 207.78C68.2227 208.92 68.5527 210.25 68.5527 211.77C68.5527 213.27 68.2227 214.6 67.5627 215.76C66.9227 216.92 66.0227 217.83 64.8627 218.49C63.7227 219.13 62.4227 219.45 60.9627 219.45C59.8627 219.45 58.8227 219.3 57.8427 219C56.8827 218.68 56.0627 218.21 55.3827 217.59V225.57H51.6027V204.6ZM60.0327 216.48C61.3927 216.48 62.5127 216.04 63.3927 215.16C64.2727 214.28 64.7127 213.15 64.7127 211.77C64.7127 210.39 64.2727 209.27 63.3927 208.41C62.5127 207.55 61.3927 207.12 60.0327 207.12C58.9527 207.12 57.9927 207.41 57.1527 207.99C56.3127 208.57 55.7227 209.35 55.3827 210.33V213.24C55.7027 214.22 56.2827 215.01 57.1227 215.61C57.9827 216.19 58.9527 216.48 60.0327 216.48ZM71.5539 196.83H75.3339V206.43C76.6939 204.91 78.4539 204.15 80.6139 204.15C82.5539 204.15 84.0039 204.68 84.9639 205.74C85.9239 206.78 86.4039 208.17 86.4039 209.91V219H82.6239V210.27C82.6239 208.17 81.6439 207.12 79.6839 207.12C78.8239 207.12 78.0139 207.33 77.2539 207.75C76.4939 208.15 75.8539 208.76 75.3339 209.58V219H71.5539V196.83ZM91.9945 202.08C91.3945 202.08 90.8845 201.88 90.4645 201.48C90.0645 201.08 89.8645 200.58 89.8645 199.98C89.8645 199.38 90.0645 198.88 90.4645 198.48C90.8845 198.06 91.3945 197.85 91.9945 197.85C92.5945 197.85 93.1045 198.06 93.5245 198.48C93.9445 198.88 94.1545 199.38 94.1545 199.98C94.1545 200.58 93.9445 201.08 93.5245 201.48C93.1045 201.88 92.5945 202.08 91.9945 202.08ZM90.0745 204.6H93.9145V219H90.0745V204.6ZM105.575 219.45C103.895 219.45 102.415 219.15 101.135 218.55C99.8753 217.95 98.8953 217.08 98.1953 215.94C97.4953 214.8 97.1453 213.43 97.1453 211.83C97.1453 210.23 97.4953 208.86 98.1953 207.72C98.9153 206.56 99.9053 205.68 101.165 205.08C102.445 204.46 103.935 204.15 105.635 204.15C107.875 204.15 109.665 204.59 111.005 205.47V208.5C109.705 207.58 108.045 207.12 106.025 207.12C104.485 207.12 103.255 207.51 102.335 208.29C101.435 209.05 100.985 210.23 100.985 211.83C100.985 213.41 101.435 214.58 102.335 215.34C103.255 216.1 104.465 216.48 105.965 216.48C107.985 216.48 109.725 216 111.185 215.04V218.04C110.465 218.52 109.645 218.87 108.725 219.09C107.825 219.33 106.775 219.45 105.575 219.45ZM124.991 198.03H132.011C134.291 198.03 136.271 198.45 137.951 199.29C139.631 200.13 140.921 201.33 141.821 202.89C142.721 204.45 143.171 206.29 143.171 208.41C143.171 211.89 142.161 214.53 140.141 216.33C138.121 218.11 135.301 219 131.681 219H124.991V198.03ZM131.741 215.85C134.181 215.85 136.051 215.2 137.351 213.9C138.671 212.58 139.331 210.75 139.331 208.41C139.331 206.99 139.041 205.74 138.461 204.66C137.881 203.56 137.051 202.71 135.971 202.11C134.891 201.49 133.611 201.18 132.131 201.18H128.801V215.85H131.741ZM154.273 219.45C151.593 219.45 149.473 218.78 147.913 217.44C146.353 216.1 145.573 214.23 145.573 211.83C145.573 209.47 146.263 207.6 147.643 206.22C149.023 204.84 150.993 204.15 153.553 204.15C155.233 204.15 156.663 204.47 157.843 205.11C159.043 205.75 159.943 206.63 160.543 207.75C161.143 208.85 161.443 210.11 161.443 211.53V213.27H149.173C149.433 215.41 151.293 216.48 154.753 216.48C155.673 216.48 156.613 216.4 157.573 216.24C158.533 216.08 159.373 215.86 160.093 215.58V218.49C159.413 218.77 158.533 219 157.453 219.18C156.393 219.36 155.333 219.45 154.273 219.45ZM157.873 210.69C157.833 209.55 157.423 208.67 156.643 208.05C155.883 207.43 154.833 207.12 153.493 207.12C152.173 207.12 151.133 207.44 150.373 208.08C149.613 208.72 149.213 209.59 149.173 210.69H157.873ZM170.064 219.45C169.024 219.45 167.914 219.33 166.734 219.09C165.554 218.85 164.634 218.52 163.974 218.1V214.89C164.754 215.37 165.684 215.76 166.764 216.06C167.844 216.34 168.864 216.48 169.824 216.48C170.784 216.48 171.484 216.4 171.924 216.24C172.364 216.06 172.584 215.74 172.584 215.28C172.584 214.92 172.464 214.63 172.224 214.41C172.004 214.17 171.634 213.96 171.114 213.78C170.614 213.58 169.834 213.34 168.774 213.06C167.574 212.72 166.624 212.37 165.924 212.01C165.244 211.65 164.724 211.2 164.364 210.66C164.024 210.1 163.854 209.38 163.854 208.5C163.854 207.06 164.424 205.98 165.564 205.26C166.704 204.52 168.244 204.15 170.184 204.15C171.184 204.15 172.174 204.25 173.154 204.45C174.154 204.63 174.934 204.89 175.494 205.23V208.32C174.894 207.96 174.164 207.67 173.304 207.45C172.444 207.23 171.564 207.12 170.664 207.12C169.684 207.12 168.944 207.22 168.444 207.42C167.944 207.6 167.694 207.96 167.694 208.5C167.694 208.86 167.824 209.15 168.084 209.37C168.364 209.57 168.724 209.75 169.164 209.91C169.604 210.05 170.404 210.27 171.564 210.57C172.804 210.91 173.774 211.28 174.474 211.68C175.174 212.08 175.674 212.56 175.974 213.12C176.274 213.68 176.424 214.38 176.424 215.22C176.424 216.5 175.874 217.53 174.774 218.31C173.694 219.07 172.124 219.45 170.064 219.45ZM181.555 202.08C180.955 202.08 180.445 201.88 180.025 201.48C179.625 201.08 179.425 200.58 179.425 199.98C179.425 199.38 179.625 198.88 180.025 198.48C180.445 198.06 180.955 197.85 181.555 197.85C182.155 197.85 182.665 198.06 183.085 198.48C183.505 198.88 183.715 199.38 183.715 199.98C183.715 200.58 183.505 201.08 183.085 201.48C182.665 201.88 182.155 202.08 181.555 202.08ZM179.635 204.6H183.475V219H179.635V204.6ZM194.926 225.9C193.966 225.9 193.006 225.81 192.046 225.63C191.086 225.45 190.286 225.21 189.646 224.91V221.91C191.206 222.59 192.966 222.93 194.926 222.93C196.686 222.93 197.946 222.56 198.706 221.82C199.486 221.08 199.876 219.98 199.876 218.52V217.59C199.196 218.21 198.386 218.68 197.446 219C196.506 219.3 195.496 219.45 194.416 219.45C192.956 219.45 191.636 219.13 190.456 218.49C189.276 217.83 188.356 216.92 187.696 215.76C187.036 214.6 186.706 213.27 186.706 211.77C186.706 210.25 187.026 208.92 187.666 207.78C188.326 206.62 189.226 205.73 190.366 205.11C191.526 204.47 192.836 204.15 194.296 204.15C195.516 204.15 196.566 204.32 197.446 204.66C198.326 204.98 199.176 205.52 199.996 206.28V204.6H203.656V218.13C203.656 220.61 202.936 222.52 201.496 223.86C200.076 225.22 197.886 225.9 194.926 225.9ZM195.226 216.48C196.306 216.48 197.266 216.19 198.106 215.61C198.966 215.01 199.556 214.22 199.876 213.24V210.33C199.536 209.35 198.946 208.57 198.106 207.99C197.266 207.41 196.306 207.12 195.226 207.12C193.866 207.12 192.746 207.55 191.866 208.41C190.986 209.27 190.546 210.39 190.546 211.77C190.546 213.15 190.986 214.28 191.866 215.16C192.746 216.04 193.866 216.48 195.226 216.48ZM207.257 204.6H210.917V206.55C211.597 205.73 212.407 205.13 213.347 204.75C214.287 204.35 215.277 204.15 216.317 204.15C218.257 204.15 219.707 204.68 220.667 205.74C221.627 206.78 222.107 208.17 222.107 209.91V219H218.327V210.27C218.327 208.17 217.347 207.12 215.387 207.12C214.527 207.12 213.717 207.33 212.957 207.75C212.197 208.15 211.557 208.76 211.037 209.58V219H207.257V204.6Z" fill="#0B2131"/>
<g filter="url(#filter0_d_5_3763)">
<rect x="32" width="160" height="160" rx="32" fill="white"/>
<rect x="33" y="1" width="158" height="158" rx="31" stroke="#0B2131" stroke-width="2"/>
</g>
<path d="M97.0382 87.5933C90.8953 83.0213 86.916 75.7045 86.916 67.4583C86.916 53.6052 98.1462 42.375 111.999 42.375C125.853 42.375 137.083 53.6052 137.083 67.4583C137.083 75.5839 133.219 82.8072 127.229 87.391" stroke="#0B2131" stroke-width="4" stroke-linecap="round" stroke-linejoin="round"/>
<path fill-rule="evenodd" clip-rule="evenodd" d="M111.999 67.458L147.833 115.833H76.166L111.999 67.458Z" fill="#F3DF6B" stroke="#0B2131" stroke-width="4" stroke-linecap="round" stroke-linejoin="round"/>
<defs>
<filter id="filter0_d_5_3763" x="32" y="0" width="166" height="166" filterUnits="userSpaceOnUse" color-interpolation-filters="sRGB">
<feFlood flood-opacity="0" result="BackgroundImageFix"/>
<feColorMatrix in="SourceAlpha" type="matrix" values="0 0 0 0 0 0 0 0 0 0 0 0 0 0 0 0 0 0 127 0" result="hardAlpha"/>
<feOffset dx="6" dy="6"/>
<feComposite in2="hardAlpha" operator="out"/>
<feColorMatrix type="matrix" values="0 0 0 0 0 0 0 0 0 0 0 0 0 0 0 0 0 0 1 0"/>
<feBlend mode="normal" in2="BackgroundImageFix" result="effect1_dropShadow_5_3763"/>
<feBlend mode="normal" in="SourceGraphic" in2="effect1_dropShadow_5_3763" result="shape"/>
</filter>
</defs>
</svg>
