<svg width="49" height="49" viewBox="0 0 49 49" fill="none" xmlns="http://www.w3.org/2000/svg">
<g clip-path="url(#clip0_5_3838)">
<path d="M16.9466 8.3991C17.4269 8.27039 17.9387 8.33777 18.3693 8.58641C18.8 8.83505 19.1142 9.24458 19.243 9.72492L23.287 24.8175C23.3728 25.1377 23.5823 25.4108 23.8694 25.5765C24.1565 25.7423 24.4977 25.7872 24.8179 25.7014C25.1382 25.6156 25.4112 25.4061 25.5769 25.119C25.7427 24.8319 25.7876 24.4907 25.7018 24.1705L24.0628 18.0537L24.2679 17.9884C25.0257 17.7543 25.801 17.5569 26.2559 17.5256C26.5969 17.5041 27.028 17.5672 27.4555 17.6753C27.6686 17.7269 27.9128 17.9332 28.0209 18.3365L29.324 23.1999C29.4098 23.5201 29.6193 23.7931 29.9064 23.9589C30.1935 24.1247 30.5347 24.1696 30.855 24.0838C31.1752 23.998 31.4482 23.7885 31.614 23.5014C31.7797 23.2143 31.8247 22.8731 31.7389 22.5528L30.7262 18.7737C30.809 18.7418 30.8922 18.7109 30.9757 18.6809C31.7233 18.4185 32.3795 18.2789 32.7113 18.3194C33.026 18.3541 33.5697 18.6252 34.1631 19.0433C34.4208 19.2227 34.6483 19.4051 34.8137 19.5393L35.6846 22.7897C35.7704 23.1099 35.9799 23.3829 36.267 23.5487C36.5541 23.7145 36.8953 23.7594 37.2155 23.6736C37.5358 23.5878 37.8088 23.3783 37.9745 23.0912C38.1403 22.8041 38.1852 22.4629 38.0994 22.1426L37.4524 19.7278L38.2782 19.5065C38.6157 19.4161 38.9684 19.3974 39.3136 19.4517C39.6587 19.5059 39.9887 19.6319 40.2821 19.8216C40.5756 20.0112 40.826 20.2602 41.0173 20.5526C41.2086 20.845 41.3365 21.1742 41.3927 21.519L42.495 28.2506C42.6363 29.1158 42.594 30.001 42.3708 30.8488L40.5822 37.6484C40.5262 37.8615 40.4148 38.056 40.2594 38.2121C40.104 38.3683 39.91 38.4806 39.6972 38.5377L24.2786 42.6691C24.0798 42.7223 23.8708 42.7256 23.6704 42.6786C23.47 42.6316 23.2843 42.5358 23.1298 42.3998L18.2782 38.1352C17.8279 37.7398 17.4789 37.2422 17.2605 36.6841L14.4183 29.4094C14.3041 29.1179 14.3034 28.7942 14.4164 28.5022C14.5294 28.2103 14.7478 27.9714 15.0285 27.8327L17.3211 26.7008L17.897 28.8499C17.9828 29.1702 18.1923 29.4432 18.4794 29.609C18.7665 29.7747 19.1077 29.8196 19.4279 29.7338C19.7482 29.648 20.0212 29.4385 20.187 29.1514C20.3527 28.8643 20.3976 28.5231 20.3118 28.2029L15.6207 10.6955C15.492 10.2152 15.5594 9.70336 15.808 9.27271C16.0567 8.84205 16.4662 8.5278 16.9466 8.3991ZM23.4151 15.6365L21.6578 9.07787C21.3575 7.95709 20.6242 7.00151 19.6193 6.42135C18.6145 5.84118 17.4203 5.68397 16.2995 5.98428C15.1787 6.28459 14.2231 7.01784 13.643 8.02271C13.0628 9.02757 12.9056 10.2218 13.2059 11.3425L16.6612 24.2376L13.9187 25.5937C13.0782 26.0097 12.4241 26.7257 12.0854 27.6002C11.7467 28.4748 11.748 29.4445 12.0891 30.3182L14.932 37.5953C15.296 38.5254 15.8777 39.3547 16.6282 40.0137L21.4798 44.2784C21.9435 44.6859 22.5006 44.9727 23.1017 45.1132C23.7028 45.2537 24.3294 45.2437 24.9257 45.084L40.3443 40.9526C40.9827 40.7813 41.5645 40.4443 42.0307 39.9757C42.4969 39.5072 42.8311 38.9237 42.9992 38.2845L44.7884 31.4873C45.1012 30.2991 45.1603 29.0584 44.9618 27.8458L43.8595 21.1143C43.7468 20.4249 43.4908 19.7668 43.1081 19.1824C42.7254 18.5979 42.2246 18.1002 41.6378 17.7212C41.051 17.3422 40.3913 17.0904 39.7012 16.982C39.0111 16.8736 38.3059 16.9109 37.6312 17.0917L36.2282 17.4676C36.0226 17.3036 35.8121 17.146 35.5968 16.9949C34.9874 16.5655 33.9977 15.9533 33.0085 15.8353C32.035 15.7183 30.8802 16.064 30.1423 16.3238L29.8313 16.4382C29.3978 15.849 28.7729 15.429 28.0636 15.2502C27.4222 15.0787 26.7585 15.0052 26.0951 15.0323C25.3064 15.0832 24.273 15.3704 23.5298 15.6006L23.4151 15.6365Z" fill="white"/>
</g>
<defs>
<clipPath id="clip0_5_3838">
<rect width="40" height="40" fill="white" transform="translate(0 10.3516) rotate(-15)"/>
</clipPath>
</defs>
</svg>
