<svg width="294" height="116" viewBox="0 0 294 116" fill="none" xmlns="http://www.w3.org/2000/svg">
<g filter="url(#filter0_d_5_3847)">
<rect x="20" y="8" width="254" height="76" rx="15" fill="white"/>
<path d="M96.0979 33.8541C96.6966 32.0115 99.3034 32.0115 99.9021 33.8541L101.592 39.0557C101.86 39.8798 102.628 40.4377 103.494 40.4377H108.964C110.901 40.4377 111.707 42.9169 110.139 44.0557L105.714 47.2705C105.013 47.7798 104.72 48.6825 104.988 49.5066L106.678 54.7082C107.277 56.5508 105.168 58.0831 103.6 56.9443L99.1756 53.7295C98.4746 53.2202 97.5254 53.2202 96.8244 53.7295L92.3997 56.9443C90.8322 58.0831 88.7233 56.5508 89.322 54.7082L91.0121 49.5066C91.2798 48.6825 90.9865 47.7798 90.2855 47.2705L85.8608 44.0557C84.2934 42.9169 85.0989 40.4377 87.0364 40.4377H92.5057C93.3721 40.4377 94.14 39.8798 94.4078 39.0557L96.0979 33.8541Z" fill="#4884FF"/>
<path d="M132.098 33.8541C132.697 32.0115 135.303 32.0115 135.902 33.8541L137.592 39.0557C137.86 39.8798 138.628 40.4377 139.494 40.4377H144.964C146.901 40.4377 147.707 42.9169 146.139 44.0557L141.714 47.2705C141.013 47.7798 140.72 48.6825 140.988 49.5066L142.678 54.7082C143.277 56.5508 141.168 58.0831 139.6 56.9443L135.176 53.7295C134.475 53.2202 133.525 53.2202 132.824 53.7295L128.4 56.9443C126.832 58.0831 124.723 56.5508 125.322 54.7082L127.012 49.5066C127.28 48.6825 126.987 47.7798 126.286 47.2705L121.861 44.0557C120.293 42.9169 121.099 40.4377 123.036 40.4377H128.506C129.372 40.4377 130.14 39.8798 130.408 39.0557L132.098 33.8541Z" fill="#4884FF"/>
<path d="M168.098 33.8541C168.697 32.0115 171.303 32.0115 171.902 33.8541L173.592 39.0557C173.86 39.8798 174.628 40.4377 175.494 40.4377H180.964C182.901 40.4377 183.707 42.9169 182.139 44.0557L177.714 47.2705C177.013 47.7798 176.72 48.6825 176.988 49.5066L178.678 54.7082C179.277 56.5508 177.168 58.0831 175.6 56.9443L171.176 53.7295C170.475 53.2202 169.525 53.2202 168.824 53.7295L164.4 56.9443C162.832 58.0831 160.723 56.5508 161.322 54.7082L163.012 49.5066C163.28 48.6825 162.987 47.7798 162.286 47.2705L157.861 44.0557C156.293 42.9169 157.099 40.4377 159.036 40.4377H164.506C165.372 40.4377 166.14 39.8798 166.408 39.0557L168.098 33.8541Z" fill="#4884FF"/>
<path d="M204.098 33.8541C204.697 32.0115 207.303 32.0115 207.902 33.8541L209.592 39.0557C209.86 39.8798 210.628 40.4377 211.494 40.4377H216.964C218.901 40.4377 219.707 42.9169 218.139 44.0557L213.714 47.2705C213.013 47.7798 212.72 48.6825 212.988 49.5066L214.678 54.7082C215.277 56.5508 213.168 58.0831 211.6 56.9443L207.176 53.7295C206.475 53.2202 205.525 53.2202 204.824 53.7295L200.4 56.9443C198.832 58.0831 196.723 56.5508 197.322 54.7082L199.012 49.5066C199.28 48.6825 198.987 47.7798 198.286 47.2705L193.861 44.0557C192.293 42.9169 193.099 40.4377 195.036 40.4377H200.506C201.372 40.4377 202.14 39.8798 202.408 39.0557L204.098 33.8541Z" fill="#4884FF"/>
<path d="M240.098 33.8541C240.697 32.0115 243.303 32.0115 243.902 33.8541L245.592 39.0557C245.86 39.8798 246.628 40.4377 247.494 40.4377H252.964C254.901 40.4377 255.707 42.9169 254.139 44.0557L249.714 47.2705C249.013 47.7798 248.72 48.6825 248.988 49.5066L250.678 54.7082C251.277 56.5508 249.168 58.0831 247.6 56.9443L243.176 53.7295C242.475 53.2202 241.525 53.2202 240.824 53.7295L236.4 56.9443C234.832 58.0831 232.723 56.5508 233.322 54.7082L235.012 49.5066C235.28 48.6825 234.987 47.7798 234.286 47.2705L229.861 44.0557C228.293 42.9169 229.099 40.4377 231.036 40.4377H236.506C237.372 40.4377 238.14 39.8798 238.408 39.0557L240.098 33.8541Z" fill="#4884FF"/>
<path d="M43.266 56.39C42.2953 56.39 41.342 56.286 40.406 56.078C39.47 55.87 38.6813 55.584 38.04 55.22V52.438C38.768 52.8887 39.5913 53.244 40.51 53.504C41.4287 53.7467 42.304 53.868 43.136 53.868C46.1347 53.868 47.634 52.6807 47.634 50.306C47.634 49.162 47.2613 48.2867 46.516 47.68C45.788 47.0733 44.7567 46.77 43.422 46.77C42.8153 46.77 42.174 46.8307 41.498 46.952C40.822 47.0733 40.224 47.238 39.704 47.446L38.326 46.666L39.028 37.826H49.688V40.556H42.018L41.68 44.716C42.6333 44.508 43.6907 44.404 44.852 44.404C46.776 44.404 48.2753 44.9327 49.35 45.99C50.4247 47.0473 50.962 48.486 50.962 50.306C50.962 52.282 50.3207 53.79 49.038 54.83C47.7553 55.87 45.8313 56.39 43.266 56.39ZM54.3719 56C54.0079 56 53.6959 55.8787 53.4359 55.636C53.1759 55.376 53.0459 55.064 53.0459 54.7C53.0459 54.3187 53.1759 53.998 53.4359 53.738C53.6959 53.478 54.0079 53.348 54.3719 53.348C54.7359 53.348 55.0479 53.478 55.3079 53.738C55.5679 53.998 55.6979 54.3187 55.6979 54.7C55.6979 55.064 55.5679 55.376 55.3079 55.636C55.0479 55.8787 54.7359 56 54.3719 56ZM65.5945 56.39C63.9998 56.39 62.6132 56.0087 61.4345 55.246C60.2558 54.4833 59.3458 53.3913 58.7045 51.97C58.0805 50.5487 57.7685 48.8673 57.7685 46.926C57.7685 44.9847 58.0805 43.3033 58.7045 41.882C59.3285 40.4433 60.2212 39.3427 61.3825 38.58C62.5612 37.8173 63.9652 37.436 65.5945 37.436C67.2065 37.436 68.6018 37.8173 69.7805 38.58C70.9592 39.3427 71.8605 40.4433 72.4845 41.882C73.1085 43.3033 73.4205 44.9847 73.4205 46.926C73.4205 48.8673 73.1085 50.5487 72.4845 51.97C71.8605 53.3913 70.9592 54.4833 69.7805 55.246C68.6018 56.0087 67.2065 56.39 65.5945 56.39ZM65.5945 53.426C67.0332 53.426 68.1425 52.854 68.9225 51.71C69.7198 50.5487 70.1185 48.9627 70.1185 46.952C70.1185 44.9413 69.7285 43.3553 68.9485 42.194C68.1685 41.0327 67.0592 40.452 65.6205 40.452C64.1818 40.452 63.0638 41.0327 62.2665 42.194C61.4865 43.3553 61.0965 44.9413 61.0965 46.952C61.0965 48.9627 61.4865 50.5487 62.2665 51.71C63.0638 52.854 64.1732 53.426 65.5945 53.426Z" fill="black"/>
</g>
<defs>
<filter id="filter0_d_5_3847" x="0" y="0" width="294" height="116" filterUnits="userSpaceOnUse" color-interpolation-filters="sRGB">
<feFlood flood-opacity="0" result="BackgroundImageFix"/>
<feColorMatrix in="SourceAlpha" type="matrix" values="0 0 0 0 0 0 0 0 0 0 0 0 0 0 0 0 0 0 127 0" result="hardAlpha"/>
<feOffset dy="12"/>
<feGaussianBlur stdDeviation="10"/>
<feComposite in2="hardAlpha" operator="out"/>
<feColorMatrix type="matrix" values="0 0 0 0 0.916667 0 0 0 0 0.836346 0 0 0 0 0.370486 0 0 0 1 0"/>
<feBlend mode="normal" in2="BackgroundImageFix" result="effect1_dropShadow_5_3847"/>
<feBlend mode="normal" in="SourceGraphic" in2="effect1_dropShadow_5_3847" result="shape"/>
</filter>
</defs>
</svg>
