<svg width="209" height="32" viewBox="0 0 209 32" fill="none" xmlns="http://www.w3.org/2000/svg">
<path d="M5.764 24.33C4.85467 24.33 3.95267 24.242 3.058 24.066C2.178 23.9047 1.452 23.6847 0.88 23.406V21.008C1.61333 21.36 2.38333 21.624 3.19 21.8C3.99667 21.976 4.78867 22.064 5.566 22.064C6.54867 22.064 7.29667 21.8807 7.81 21.514C8.32333 21.1473 8.58 20.6413 8.58 19.996C8.58 19.5413 8.46267 19.1673 8.228 18.874C7.99333 18.566 7.64867 18.302 7.194 18.082C6.73933 17.8473 6.04267 17.5467 5.104 17.18C3.66667 16.5933 2.62533 15.9407 1.98 15.222C1.33467 14.5033 1.012 13.6087 1.012 12.538C1.012 11.702 1.23933 10.9613 1.694 10.316C2.14867 9.67067 2.78667 9.172 3.608 8.82C4.42933 8.468 5.37533 8.292 6.446 8.292C7.326 8.292 8.10333 8.36533 8.778 8.512C9.46733 8.644 10.142 8.85667 10.802 9.15V11.482C9.526 10.866 8.23533 10.558 6.93 10.558C5.99133 10.558 5.26533 10.734 4.752 11.086C4.23867 11.4233 3.982 11.9073 3.982 12.538C3.982 12.9927 4.09933 13.3667 4.334 13.66C4.56867 13.9387 4.87667 14.1807 5.258 14.386C5.654 14.5767 6.358 14.8847 7.37 15.31C8.39667 15.7353 9.20333 16.1533 9.79 16.564C10.3913 16.9747 10.8387 17.4587 11.132 18.016C11.44 18.5587 11.594 19.226 11.594 20.018C11.594 21.382 11.1027 22.4453 10.12 23.208C9.13733 23.956 7.68533 24.33 5.764 24.33ZM19.7424 24.33C17.7771 24.33 16.2224 23.8387 15.0784 22.856C13.9344 21.8733 13.3624 20.502 13.3624 18.742C13.3624 17.0113 13.8684 15.64 14.8804 14.628C15.8924 13.616 17.3371 13.11 19.2144 13.11C20.4464 13.11 21.4951 13.3447 22.3604 13.814C23.2404 14.2833 23.9004 14.9287 24.3404 15.75C24.7804 16.5567 25.0004 17.4807 25.0004 18.522V19.798H16.0024C16.1931 21.3673 17.5571 22.152 20.0944 22.152C20.7691 22.152 21.4584 22.0933 22.1624 21.976C22.8664 21.8587 23.4824 21.6973 24.0104 21.492V23.626C23.5118 23.8313 22.8664 24 22.0744 24.132C21.2971 24.264 20.5198 24.33 19.7424 24.33ZM22.3824 17.906C22.3531 17.07 22.0524 16.4247 21.4804 15.97C20.9231 15.5153 20.1531 15.288 19.1704 15.288C18.2024 15.288 17.4398 15.5227 16.8824 15.992C16.3251 16.4613 16.0318 17.0993 16.0024 17.906H22.3824ZM27.2087 13.44H29.8927V14.87C30.3913 14.2687 30.9853 13.8287 31.6747 13.55C32.364 13.2567 33.09 13.11 33.8527 13.11C35.2753 13.11 36.3387 13.4987 37.0427 14.276C37.7467 15.0387 38.0987 16.058 38.0987 17.334V24H35.3267V17.598C35.3267 16.058 34.608 15.288 33.1707 15.288C32.54 15.288 31.946 15.442 31.3887 15.75C30.8313 16.0433 30.362 16.4907 29.9807 17.092V24H27.2087V13.44ZM45.7624 24.33C44.6917 24.33 43.7311 24.1027 42.8804 23.648C42.0444 23.1787 41.3844 22.526 40.9004 21.69C40.4311 20.8393 40.1964 19.8567 40.1964 18.742C40.1964 17.642 40.4311 16.6667 40.9004 15.816C41.3844 14.9653 42.0444 14.3053 42.8804 13.836C43.7311 13.352 44.6917 13.11 45.7624 13.11C47.4931 13.11 48.8571 13.5647 49.8544 14.474V7.742H52.6264V24H49.9424V22.768C49.3411 23.3253 48.7177 23.7287 48.0724 23.978C47.4271 24.2127 46.6571 24.33 45.7624 24.33ZM46.4444 22.152C47.2364 22.152 47.9404 21.9393 48.5564 21.514C49.1724 21.0887 49.6051 20.5167 49.8544 19.798V17.664C49.6197 16.9453 49.1871 16.3733 48.5564 15.948C47.9404 15.508 47.2364 15.288 46.4444 15.288C45.4471 15.288 44.6257 15.6107 43.9804 16.256C43.3351 16.9013 43.0124 17.73 43.0124 18.742C43.0124 19.754 43.3351 20.5753 43.9804 21.206C44.6257 21.8367 45.4471 22.152 46.4444 22.152ZM63.195 8.622H65.923L71.071 19.886L76.219 8.622H78.947V24H76.307V14.012L71.731 24H70.411L65.835 14.012V24H63.195V8.622ZM87.5256 24.33C85.5603 24.33 84.0056 23.8387 82.8616 22.856C81.7176 21.8733 81.1456 20.502 81.1456 18.742C81.1456 17.0113 81.6516 15.64 82.6636 14.628C83.6756 13.616 85.1203 13.11 86.9976 13.11C88.2296 13.11 89.2783 13.3447 90.1436 13.814C91.0236 14.2833 91.6836 14.9287 92.1236 15.75C92.5636 16.5567 92.7836 17.4807 92.7836 18.522V19.798H83.7856C83.9763 21.3673 85.3403 22.152 87.8776 22.152C88.5523 22.152 89.2416 22.0933 89.9456 21.976C90.6496 21.8587 91.2656 21.6973 91.7936 21.492V23.626C91.295 23.8313 90.6496 24 89.8576 24.132C89.0803 24.264 88.303 24.33 87.5256 24.33ZM90.1656 17.906C90.1363 17.07 89.8356 16.4247 89.2636 15.97C88.7063 15.5153 87.9363 15.288 86.9536 15.288C85.9856 15.288 85.223 15.5227 84.6656 15.992C84.1083 16.4613 83.815 17.0993 83.7856 17.906H90.1656ZM99.1059 24.33C98.3432 24.33 97.5292 24.242 96.6639 24.066C95.7985 23.89 95.1239 23.648 94.6399 23.34V20.986C95.2119 21.338 95.8939 21.624 96.6859 21.844C97.4779 22.0493 98.2259 22.152 98.9299 22.152C99.6339 22.152 100.147 22.0933 100.47 21.976C100.793 21.844 100.954 21.6093 100.954 21.272C100.954 21.008 100.866 20.7953 100.69 20.634C100.529 20.458 100.257 20.304 99.8759 20.172C99.5092 20.0253 98.9372 19.8493 98.1599 19.644C97.2799 19.3947 96.5832 19.138 96.0699 18.874C95.5712 18.61 95.1899 18.28 94.9259 17.884C94.6765 17.4733 94.5519 16.9453 94.5519 16.3C94.5519 15.244 94.9699 14.452 95.8059 13.924C96.6419 13.3813 97.7712 13.11 99.1939 13.11C99.9272 13.11 100.653 13.1833 101.372 13.33C102.105 13.462 102.677 13.6527 103.088 13.902V16.168C102.648 15.904 102.113 15.6913 101.482 15.53C100.851 15.3687 100.206 15.288 99.5459 15.288C98.8272 15.288 98.2845 15.3613 97.9179 15.508C97.5512 15.64 97.3679 15.904 97.3679 16.3C97.3679 16.564 97.4632 16.7767 97.6539 16.938C97.8592 17.0847 98.1232 17.2167 98.4459 17.334C98.7685 17.4367 99.3552 17.598 100.206 17.818C101.115 18.0673 101.827 18.3387 102.34 18.632C102.853 18.9253 103.22 19.2773 103.44 19.688C103.66 20.0987 103.77 20.612 103.77 21.228C103.77 22.1667 103.367 22.922 102.56 23.494C101.768 24.0513 100.617 24.33 99.1059 24.33ZM109.526 24.33C108.763 24.33 107.949 24.242 107.084 24.066C106.218 23.89 105.544 23.648 105.06 23.34V20.986C105.632 21.338 106.314 21.624 107.106 21.844C107.898 22.0493 108.646 22.152 109.35 22.152C110.054 22.152 110.567 22.0933 110.89 21.976C111.212 21.844 111.374 21.6093 111.374 21.272C111.374 21.008 111.286 20.7953 111.11 20.634C110.948 20.458 110.677 20.304 110.296 20.172C109.929 20.0253 109.357 19.8493 108.58 19.644C107.7 19.3947 107.003 19.138 106.49 18.874C105.991 18.61 105.61 18.28 105.346 17.884C105.096 17.4733 104.972 16.9453 104.972 16.3C104.972 15.244 105.39 14.452 106.226 13.924C107.062 13.3813 108.191 13.11 109.614 13.11C110.347 13.11 111.073 13.1833 111.792 13.33C112.525 13.462 113.097 13.6527 113.508 13.902V16.168C113.068 15.904 112.532 15.6913 111.902 15.53C111.271 15.3687 110.626 15.288 109.966 15.288C109.247 15.288 108.704 15.3613 108.338 15.508C107.971 15.64 107.788 15.904 107.788 16.3C107.788 16.564 107.883 16.7767 108.074 16.938C108.279 17.0847 108.543 17.2167 108.866 17.334C109.188 17.4367 109.775 17.598 110.626 17.818C111.535 18.0673 112.246 18.3387 112.76 18.632C113.273 18.9253 113.64 19.2773 113.86 19.688C114.08 20.0987 114.19 20.612 114.19 21.228C114.19 22.1667 113.786 22.922 112.98 23.494C112.188 24.0513 111.036 24.33 109.526 24.33ZM119.94 24.33C118.679 24.33 117.645 24 116.838 23.34C116.031 22.6653 115.628 21.7633 115.628 20.634C115.628 19.4607 116.009 18.544 116.772 17.884C117.535 17.224 118.605 16.894 119.984 16.894C121.319 16.894 122.47 17.1653 123.438 17.708V17.422C123.438 16.674 123.203 16.1313 122.734 15.794C122.279 15.4567 121.539 15.288 120.512 15.288C119.867 15.288 119.229 15.354 118.598 15.486C117.967 15.6033 117.41 15.772 116.926 15.992V13.814C117.366 13.6087 117.953 13.44 118.686 13.308C119.434 13.176 120.153 13.11 120.842 13.11C122.675 13.11 124.032 13.506 124.912 14.298C125.792 15.0753 126.232 16.1607 126.232 17.554V24H123.614V22.966C123.159 23.406 122.639 23.7433 122.052 23.978C121.48 24.2127 120.776 24.33 119.94 24.33ZM120.622 22.306C121.238 22.306 121.795 22.1887 122.294 21.954C122.793 21.7047 123.174 21.3673 123.438 20.942V19.776C122.631 19.204 121.707 18.918 120.666 18.918C119.185 18.918 118.444 19.49 118.444 20.634C118.444 21.1913 118.627 21.6093 118.994 21.888C119.375 22.1667 119.918 22.306 120.622 22.306ZM134.353 29.06C133.649 29.06 132.945 28.994 132.241 28.862C131.537 28.73 130.951 28.554 130.481 28.334V26.134C131.625 26.6327 132.916 26.882 134.353 26.882C135.644 26.882 136.568 26.6107 137.125 26.068C137.697 25.5253 137.983 24.7187 137.983 23.648V22.966C137.485 23.4207 136.891 23.7653 136.201 24C135.512 24.22 134.771 24.33 133.979 24.33C132.909 24.33 131.941 24.0953 131.075 23.626C130.21 23.142 129.535 22.4747 129.051 21.624C128.567 20.7733 128.325 19.798 128.325 18.698C128.325 17.5833 128.56 16.608 129.029 15.772C129.513 14.9213 130.173 14.2687 131.009 13.814C131.86 13.3447 132.821 13.11 133.891 13.11C134.786 13.11 135.556 13.2347 136.201 13.484C136.847 13.7187 137.47 14.1147 138.071 14.672V13.44H140.755V23.362C140.755 25.1807 140.227 26.5813 139.171 27.564C138.13 28.5613 136.524 29.06 134.353 29.06ZM134.573 22.152C135.365 22.152 136.069 21.9393 136.685 21.514C137.316 21.074 137.749 20.4947 137.983 19.776V17.642C137.734 16.9233 137.301 16.3513 136.685 15.926C136.069 15.5007 135.365 15.288 134.573 15.288C133.576 15.288 132.755 15.6033 132.109 16.234C131.464 16.8647 131.141 17.686 131.141 18.698C131.141 19.71 131.464 20.5387 132.109 21.184C132.755 21.8293 133.576 22.152 134.573 22.152ZM149.336 24.33C147.371 24.33 145.816 23.8387 144.672 22.856C143.528 21.8733 142.956 20.502 142.956 18.742C142.956 17.0113 143.462 15.64 144.474 14.628C145.486 13.616 146.931 13.11 148.808 13.11C150.04 13.11 151.089 13.3447 151.954 13.814C152.834 14.2833 153.494 14.9287 153.934 15.75C154.374 16.5567 154.594 17.4807 154.594 18.522V19.798H145.596C145.787 21.3673 147.151 22.152 149.688 22.152C150.363 22.152 151.052 22.0933 151.756 21.976C152.46 21.8587 153.076 21.6973 153.604 21.492V23.626C153.106 23.8313 152.46 24 151.668 24.132C150.891 24.264 150.114 24.33 149.336 24.33ZM151.976 17.906C151.947 17.07 151.646 16.4247 151.074 15.97C150.517 15.5153 149.747 15.288 148.764 15.288C147.796 15.288 147.034 15.5227 146.476 15.992C145.919 16.4613 145.626 17.0993 145.596 17.906H151.976Z" fill="white"/>
<path d="M190 1C190.833 5.16667 195 14.1 205 16.5C200 18.5 190 24.3 190 31.5" stroke="white" stroke-width="2"/>
<path d="M163 17L205 17" stroke="white" stroke-width="2"/>
</svg>
